<?xml version="1.0" encoding="UTF-8"?>
<svg version="1.1" xmlns="http://www.w3.org/2000/svg" width="1000" height="1000">
<path d="M0 0 C1.62704516 -0.00307895 1.62704516 -0.00307895 3.28695992 -0.0062201 C6.92881886 -0.01188342 10.57063991 -0.01043367 14.21250248 -0.00901413 C16.84716481 -0.01159815 19.4818241 -0.0145727 22.11648518 -0.01801753 C28.60269187 -0.02558496 35.08889033 -0.02778995 41.57510098 -0.02834659 C49.3455782 -0.02926147 57.11604784 -0.03593274 64.88652179 -0.04269341 C83.66666742 -0.05874322 102.44681223 -0.0646556 121.22696349 -0.06944216 C130.11405663 -0.0717792 139.00114912 -0.07538198 147.88824175 -0.07913754 C178.31920864 -0.09197235 208.75017518 -0.10269143 239.18114471 -0.10614014 C241.09095651 -0.10636177 243.00076831 -0.10658355 244.9105801 -0.10680549 C246.82496304 -0.10702613 248.73934597 -0.10724661 250.6537289 -0.10746694 C254.49420734 -0.10790948 258.33468578 -0.1083566 262.17516422 -0.10880661 C263.60348422 -0.1089707 263.60348422 -0.1089707 265.06065916 -0.1091381 C295.92953738 -0.11276795 326.7983921 -0.12868567 357.66726133 -0.15199697 C390.31576 -0.17660706 422.96424524 -0.19031353 455.61275345 -0.19150805 C459.19853469 -0.1916795 462.78431593 -0.19189493 466.37009716 -0.19214249 C467.25299527 -0.19219826 468.13589339 -0.19225402 469.04554599 -0.19231148 C483.23845194 -0.19346092 497.43133372 -0.20447381 511.62423152 -0.21902954 C525.89724123 -0.23341402 540.17022006 -0.23662052 554.44323503 -0.22858956 C562.91584875 -0.22414246 571.38836258 -0.227957 579.86096312 -0.24382807 C585.52998255 -0.25361279 591.19893238 -0.25236667 596.86795125 -0.24239184 C600.09181796 -0.23702483 603.31545687 -0.23789134 606.53931468 -0.24890056 C638.6873527 -0.35169578 665.90372632 5.85593506 689.81798649 28.44392776 C706.71201563 46.0805516 716.29070963 69.98382144 716.15916538 94.38434505 C716.15691446 95.0713472 716.15466354 95.75834935 716.15234441 96.46616974 C716.14366214 98.75541096 716.12768471 101.04454231 716.11180973 103.33374405 C716.10419793 104.99719527 716.09708481 106.66064883 716.09042597 108.32410413 C716.07507501 111.9348514 716.05661359 115.54556459 716.03577709 119.15628433 C716.0020437 125.03350154 715.97564901 130.91073753 715.95078373 136.7879982 C715.94648657 137.80066989 715.9421894 138.81334157 715.93776202 139.85670028 C715.9289307 141.94103415 715.92012236 144.02536812 715.91133618 146.10970218 C715.89751822 149.33688597 715.8830497 152.56406635 715.86846828 155.79124677 C715.79839001 171.52882814 715.75508859 187.26635229 715.72753239 203.00406265 C715.72550582 204.14441417 715.72347924 205.28476569 715.72139126 206.45967331 C715.70279289 217.05116422 715.68607009 227.64265767 715.67095375 238.23415411 C715.66053186 245.49573072 715.64916159 252.7573053 715.63683414 260.01887894 C715.63479998 261.22482027 715.63276582 262.43076159 715.63067001 263.6732466 C715.59610893 283.14464225 715.5044916 302.61537987 715.39232987 322.08646484 C715.27828244 342.12775107 715.22996756 362.16845992 715.24011946 382.21007043 C715.24427955 394.53976303 715.19853637 406.86709872 715.08585548 419.1962863 C715.01319508 427.67965872 715.00490976 436.16167286 715.04414606 444.6452572 C715.06485578 449.51818152 715.06011859 454.38696139 714.97757626 459.25932312 C714.55684737 485.57480611 719.38190994 504.72196331 731.85676193 527.91136706 C735.28651902 534.34925962 738.22172707 541.02129385 741.19760591 547.67751684 C742.81320233 551.27785018 744.46004818 554.86389652 746.10314274 558.45174026 C746.76360469 559.89731299 747.42394057 561.34294332 748.08409977 562.78865433 C751.07696159 569.34061998 754.07221224 575.89149359 757.06725407 582.44246292 C758.06692789 584.62911223 759.06649802 586.8158089 760.06603336 589.00252151 C763.41060625 596.31944524 766.75605698 603.63596566 770.10314274 610.95174026 C773.10145877 617.50533842 776.09752634 624.05996002 779.09133244 630.61561966 C780.75896495 634.26708795 782.4277025 637.9180435 784.09874821 641.5679512 C788.45112078 651.0760072 792.7797777 660.59424943 797.06798649 670.13142776 C797.51706364 671.12674515 797.96614079 672.12206253 798.42882633 673.14754105 C809.44651116 697.72340704 814.48226169 724.90098167 804.90685368 751.02009964 C794.88677956 776.23942471 777.11229628 796.23852632 752.06798649 807.13142776 C737.61929376 812.86923951 722.95449779 814.43950623 707.48447514 814.38311005 C706.06370987 814.38520181 704.64294568 814.38816836 703.22218382 814.39191878 C699.3425197 814.39965395 695.4629561 814.39507507 691.58329375 814.38836287 C687.35315893 814.38326534 683.12303889 814.38981882 678.89290619 814.39484954 C671.4870732 814.40205802 664.08126939 814.40186295 656.67543507 814.39675522 C645.6625704 814.38918045 634.64973028 814.39306284 623.63686576 814.39917183 C603.96623723 814.40969745 584.29562169 814.40879286 564.62499192 814.40301401 C547.41082881 814.39798168 530.19667045 814.39667006 512.98250675 814.3990593 C511.26931424 814.39928845 511.26931424 814.39928845 509.52151179 814.39952224 C504.88516908 814.40014492 500.24882638 814.40078172 495.61248368 814.40144176 C452.12549117 814.40755892 408.63850694 814.40201417 365.15151571 814.39124797 C326.52112914 814.38175686 287.89075575 814.38260612 249.2603693 814.39216995 C205.85259804 814.40288063 162.44483409 814.40712508 119.03706169 814.40094543 C114.40919654 814.400304 109.78133138 814.39967832 105.15346622 814.3990593 C104.01397885 814.39890114 102.87449149 814.39874299 101.7004742 814.39858004 C84.49768942 814.39630568 67.29490993 814.39896455 50.09212589 814.4040184 C30.53060278 814.40973657 10.9690947 814.40830797 -8.59242654 814.39745691 C-19.53852191 814.39158515 -30.48458473 814.39119985 -41.43067925 814.39874926 C-48.74441451 814.40323693 -56.0581237 814.40043763 -63.37185509 814.39173973 C-67.53741445 814.38698728 -71.7029092 814.38534487 -75.8684665 814.39255169 C-79.66445049 814.39905201 -83.46031307 814.3962107 -87.25628836 814.38619037 C-89.25107735 814.38325348 -91.2458736 814.39002694 -93.24065149 814.39729893 C-122.06058601 814.27822545 -145.94580678 804.72723621 -166.45154476 784.66658401 C-174.98509748 775.69690424 -181.63097573 764.73556997 -185.93201351 753.13142776 C-186.16049984 752.51718948 -186.38898617 751.9029512 -186.62439632 751.27009964 C-193.41269062 732.18204071 -194.25372368 708.17075676 -186.93201351 689.13142776 C-186.66840023 688.44000687 -186.40478695 687.74858597 -186.13318539 687.03621292 C-183.62531615 680.63329174 -180.78814253 674.38493213 -177.93201351 668.13142776 C-177.64072567 667.49231461 -177.34943783 666.85320145 -177.04932308 666.19472122 C-172.81614667 656.90716638 -168.54839441 647.63570938 -164.26956844 638.36911392 C-160.44863987 630.09109084 -156.65687221 621.79985078 -152.86951351 613.50642776 C-152.20735035 612.05703365 -151.54515957 610.60765215 -150.88294125 609.15828323 C-149.56043892 606.26366015 -148.23811187 603.36895708 -146.91590023 600.4742012 C-143.9229534 593.92204944 -140.92760464 587.37099574 -137.93247128 580.81984329 C-136.93358247 578.63485973 -135.93484919 576.44980514 -134.9361639 574.26472855 C-131.91999091 567.66570008 -128.90307207 561.06701762 -125.88239193 554.47005081 C-124.51685956 551.48764908 -123.15191173 548.50497997 -121.78699398 545.52229691 C-121.16162734 544.15611851 -120.53600288 542.79005808 -119.91004086 541.42415237 C-119.47812435 540.48164627 -119.47812435 540.48164627 -119.03748226 539.52009964 C-118.7598316 538.91655903 -118.48218094 538.31301841 -118.19611663 537.69118869 C-117.57829826 536.33461459 -116.969251 534.97399397 -116.37115604 533.60860932 C-114.28562126 528.89592602 -111.98935927 524.37470423 -109.50656319 519.8579731 C-98.46945548 498.9459739 -96.93019779 480.65846321 -97.26652896 457.28905749 C-97.32180505 452.3389577 -97.29410147 447.38914674 -97.27731991 442.43886185 C-97.25914669 433.89650132 -97.29099887 425.35556738 -97.35829258 416.81346893 C-97.4553761 404.44539163 -97.47061646 392.07821137 -97.46665331 379.70980202 C-97.46209961 359.60964797 -97.51738968 339.51014516 -97.61341 319.41023636 C-97.70620636 299.94931111 -97.77804354 280.48853739 -97.816535 261.02742386 C-97.82011601 259.22601699 -97.82011601 259.22601699 -97.82376937 257.38821806 C-97.84930898 244.26288274 -97.86950665 231.13754231 -97.88674355 218.01219368 C-97.89139959 214.52640484 -97.89606715 211.04061602 -97.90075228 207.55482723 C-97.90379365 205.25639018 -97.90674137 202.95795301 -97.90959402 200.65951572 C-97.92664844 187.18392137 -97.95966957 173.70857571 -98.02171858 160.23310958 C-98.06058693 151.78834687 -98.09036156 143.34358861 -98.11316309 134.89876725 C-98.12950846 129.10808274 -98.15833277 123.31765538 -98.19733172 117.52708162 C-98.21787647 113.99304229 -98.22559173 110.45905875 -98.22975608 106.92496572 C-98.23415696 105.32194273 -98.24364882 103.71892266 -98.25911496 102.11596824 C-98.53010753 73.06691548 -89.70173623 47.64279016 -69.61951351 26.38142776 C-50.57532859 8.13910326 -25.99734702 -0.04595994 0 0 Z M-26.93201351 74.13142776 C-31.77513352 80.57174692 -34.18346341 86.67613704 -34.17810917 94.81993294 C-34.18041666 95.47036184 -34.18272415 96.12079075 -34.18510156 96.79092962 C-34.19038719 98.96645325 -34.18143165 101.14167993 -34.17252254 103.31718826 C-34.17339771 104.89011072 -34.17515211 106.4630329 -34.17771053 108.03595352 C-34.18219765 112.36463712 -34.17416799 116.69322183 -34.16415897 121.02189288 C-34.15543136 125.75907816 -34.15834782 130.49625881 -34.15979481 135.23344994 C-34.16085857 144.43095754 -34.15161962 153.62842612 -34.13879215 162.82592369 C-34.12439977 173.46365092 -34.12280307 184.10135466 -34.1212225 194.73909378 C-34.11071913 222.8282113 -34.08279694 250.91732012 -34.05701351 279.00642776 C-34.01576351 341.74767776 -33.97451351 404.48892776 -33.93201351 469.13142776 C192.44798649 469.13142776 418.82798649 469.13142776 652.06798649 469.13142776 C652.15048649 406.47267776 652.23298649 343.81392776 652.31798649 279.25642776 C652.3544025 259.4565889 652.39081852 239.65675003 652.42833805 219.25691605 C652.44171407 201.54059359 652.44171407 201.54059359 652.44976139 183.82426834 C652.45349472 175.92049285 652.46818084 168.01683018 652.49028873 160.1130867 C652.51574626 150.9983524 652.52733116 141.88372648 652.52176629 132.76895636 C652.51935607 128.10611534 652.52318362 123.4435166 652.54484701 118.78072 C652.56432794 114.56202351 652.56527025 110.34374037 652.55159092 106.1250248 C652.54989819 104.60216573 652.55494145 103.07928062 652.5675168 101.55647254 C652.65321598 90.52811818 651.58436522 81.02838378 643.77111149 72.66267776 C635.809801 65.50480228 627.83696451 63.83144212 617.39375019 63.87415886 C615.77208592 63.86889975 615.77208592 63.86889975 614.11766076 63.86353439 C610.47599092 63.85419171 606.83448 63.85915118 603.19280338 63.86400223 C600.56312398 63.86026741 597.93345654 63.85574653 595.30378127 63.85027158 C589.57645347 63.83996212 583.84915947 63.83712943 578.12182331 63.83918381 C569.60494478 63.84223134 561.08810372 63.83391532 552.57123247 63.82343456 C536.47536588 63.8040809 520.37951202 63.79846582 504.28363517 63.79732044 C491.8544172 63.79640175 479.42520423 63.79228716 466.99598789 63.78591919 C463.41970309 63.78412413 459.84341828 63.7823445 456.26713347 63.78056943 C455.37808549 63.78012734 454.48903752 63.77968524 453.57304869 63.77922975 C428.5616025 63.76691927 403.55015804 63.75902883 378.53870869 63.75991631 C377.12388384 63.75996304 377.12388384 63.75996304 375.68047667 63.76001072 C370.89974281 63.76017694 366.11900896 63.76037502 361.3382751 63.76058014 C359.91404086 63.76063997 359.91404086 63.76063997 358.46103421 63.76070102 C356.54093445 63.76078189 354.6208347 63.76086549 352.70073494 63.7609518 C322.82573683 63.76217737 292.95078411 63.74716395 263.07579899 63.71980667 C229.51981931 63.68909136 195.96386945 63.67187385 162.40787482 63.67373312 C158.8303326 63.67388238 155.25279037 63.67397979 151.67524815 63.67404175 C150.35390298 63.67407671 150.35390298 63.67407671 149.00586398 63.67411238 C134.82447706 63.67417395 120.64312952 63.66139737 106.46175432 63.64417722 C92.21101658 63.62723066 77.96033651 63.62523923 63.70959428 63.63839586 C55.24215742 63.64579157 46.77489565 63.64210859 38.30747731 63.62251118 C32.6507694 63.61052461 26.99418851 63.61308746 21.33748646 63.62745218 C18.11482632 63.63522652 14.89257303 63.63452688 11.66992393 63.62053747 C8.19483304 63.60644951 4.72064727 63.61697805 1.24558735 63.63364983 C0.25000018 63.62371347 -0.74558699 63.61377711 -1.77134347 63.60353965 C-11.58133808 63.70318185 -20.2651001 66.71618734 -26.93201351 74.13142776 Z M-45.93201351 533.13142776 C-57.26977767 557.2350216 -57.26977767 557.2350216 -68.36951351 581.44392776 C-69.61858765 584.20346194 -70.86917392 586.96231052 -72.11951351 589.72127151 C-72.431945 590.41122208 -72.74437649 591.10117264 -73.0662756 591.81203079 C-76.64791347 599.71904722 -80.25827538 607.61289767 -83.86951351 615.50642776 C-84.53928527 616.97085883 -85.20904438 618.43529568 -85.87879086 619.89973831 C-88.23283498 625.04660908 -90.58761439 630.19314335 -92.94238949 635.33967972 C-100.70455951 652.30482861 -108.45968388 669.27309893 -116.18201351 686.25642776 C-116.49679653 686.94843277 -116.81157955 687.64043777 -117.13590145 688.35341263 C-119.87087012 694.36675348 -122.60480273 700.38062378 -125.30701351 706.40877151 C-125.60865414 707.08158157 -125.91029476 707.75439163 -126.22107601 708.44758987 C-129.10843268 715.28622276 -128.85829155 723.35379125 -126.36951351 730.25642776 C-123.01271011 737.78559597 -117.22847155 744.201394 -109.93201351 748.13142776 C-105.77801021 749.71901149 -102.33967734 750.38190952 -97.90084237 750.38442743 C-96.10807186 750.39270666 -96.10807186 750.39270666 -94.27908376 750.40115315 C-92.97222913 750.39704251 -91.66537451 750.39293187 -90.31891823 750.38869667 C-88.90596347 750.39139042 -87.49301015 750.39495846 -86.08005956 750.39932114 C-82.18482463 750.40879144 -78.28968307 750.40577452 -74.39444351 750.4007656 C-70.16140238 750.39750359 -65.9283814 750.40577764 -61.69534665 750.41258395 C-54.27216277 750.42290143 -46.84900497 750.42572471 -39.42581463 750.42367172 C-28.38728144 750.42062629 -17.34877721 750.42893553 -6.31024964 750.43942097 C14.54993005 750.45878183 35.41009993 750.46438996 56.27028755 750.46553509 C72.3765737 750.46645348 88.48285599 750.47056651 104.58914089 750.47693634 C109.22199573 750.47873137 113.85485057 750.480511 118.48770541 750.4822861 C120.2152178 750.48294924 120.2152178 750.48294924 121.97762942 750.48362578 C154.38026757 750.49593737 186.78290438 750.50382658 219.18554497 750.50293922 C221.01872424 750.50289249 221.01872424 750.50289249 222.88893743 750.50284481 C229.08343051 750.50267859 235.27792359 750.5024805 241.47241668 750.50227539 C242.70271003 750.5022355 243.93300337 750.50219561 245.20057834 750.50215451 C247.68853186 750.50207364 250.17648538 750.50199004 252.66443889 750.50190373 C291.38075688 750.50067797 330.09703985 750.51569465 368.81334782 750.54304886 C412.29023273 750.57375375 455.76709463 750.59098233 499.24399108 750.58912241 C503.87778898 750.58897315 508.51158688 750.58887574 513.14538479 750.58881378 C514.28638128 750.58879047 515.42737776 750.58876716 516.6029499 750.58874315 C534.98365683 750.58868154 553.36433341 750.60146628 571.74503131 750.61867831 C590.20996816 750.63561191 608.67486051 750.63762647 627.13980082 750.62445967 C638.11582839 750.61705543 649.09172096 750.62077238 660.06773429 750.64034435 C667.39532172 750.65230895 674.72281096 750.64979262 682.0503938 750.63540335 C686.22816427 750.62761053 690.40567275 750.62617389 694.58342514 750.64231806 C698.38479409 750.65687942 702.185683 750.65299952 705.98703061 750.63447032 C707.99678109 750.62940867 710.00655185 750.64395306 712.01624998 750.65931588 C722.44457384 750.57692896 729.62032589 748.18184111 737.27892399 741.05720901 C743.57069525 734.28462554 746.23172008 727.15073884 746.43126774 717.98689651 C745.22773956 708.52690621 740.32972895 699.82207427 736.38048649 691.25642776 C735.71199959 689.79748068 735.04395909 688.33832898 734.3763361 686.87898636 C732.97971504 683.82791798 731.58055086 680.7780355 730.17931461 677.72908401 C728.14114004 673.29313963 726.11107767 668.85352496 724.08361149 664.41267776 C721.42554289 658.59140846 718.7656409 652.77098505 716.10314274 646.95174026 C711.75636094 637.45097632 707.41269759 627.94878816 703.06926823 618.44649124 C702.07016328 616.26073167 701.07103666 614.07498201 700.07189274 611.88924026 C699.74209415 611.1677681 699.41229557 610.44629593 699.07250309 609.70296097 C697.06321485 605.30768893 695.05317205 600.91276282 693.04255009 596.51810074 C691.36328176 592.8476561 689.68430872 589.17707646 688.00548649 585.50642776 C687.67886021 584.79229721 687.35223392 584.07816666 687.01570988 583.34239578 C681.21486368 570.65759362 675.43850039 557.96173216 669.67516422 545.25984573 C669.37194248 544.59190491 669.06872074 543.92396408 668.75631046 543.23578262 C667.93875562 541.43477834 667.12164148 539.63357402 666.30455875 537.8323555 C665.58219661 536.25456825 664.84403026 534.68351531 664.06798649 533.13142776 C429.76798649 533.13142776 195.46798649 533.13142776 -45.93201351 533.13142776 Z " fill="#FF0000" transform="translate(190.93201351165771,92.86857223510742)"/>
<path d="M0 0 C1.93812561 -0.0076664 1.93812561 -0.0076664 3.91540527 -0.01548767 C7.44031307 -0.02881084 10.96511321 -0.02946381 14.49004126 -0.02692437 C17.44207871 -0.02585003 20.39409479 -0.03074986 23.34612763 -0.03552979 C30.31572915 -0.04660203 37.28527677 -0.04707538 44.25488281 -0.04101562 C51.42355726 -0.03497822 58.59203531 -0.04728608 65.76067626 -0.06858569 C71.93505307 -0.08625053 78.10936765 -0.09219536 84.28376877 -0.08894795 C87.96279188 -0.0871426 91.64167488 -0.08969592 95.3206749 -0.10366249 C99.42745288 -0.11867143 103.53383585 -0.10922822 107.640625 -0.09765625 C108.84510284 -0.10529999 110.04958069 -0.11294373 111.29055786 -0.12081909 C124.10858858 -0.04123061 132.62867466 2.95362583 141.69970703 12.0246582 C147.6749444 20.65555663 149.11284361 28.84240233 147.94970703 39.2746582 C145.67671972 49.03908891 139.59126426 56.0142508 131.23486328 61.2668457 C123.60641477 64.6311871 116.09970425 64.56612658 107.89941406 64.54931641 C106.60733032 64.55442734 105.31524658 64.55953827 103.98400879 64.56480408 C100.45910099 64.57812724 96.93430085 64.57878021 93.40937281 64.57624078 C90.45733536 64.57516644 87.50531928 64.58006626 84.55328643 64.5848462 C77.58368491 64.59591844 70.6141373 64.59639179 63.64453125 64.59033203 C56.4758568 64.58429463 49.30737875 64.59660249 42.1387378 64.6179021 C35.96436099 64.63556693 29.79004641 64.64151176 23.61564529 64.63826436 C19.93662219 64.636459 16.25773918 64.63901232 12.57873917 64.6529789 C8.47196118 64.66798784 4.36557822 64.65854463 0.25878906 64.64697266 C-0.94568878 64.65461639 -2.15016663 64.66226013 -3.3911438 64.6701355 C-16.20917452 64.59054702 -24.7292606 61.59569057 -33.80029297 52.5246582 C-39.77553034 43.89375978 -41.21342954 35.70691408 -40.05029297 25.2746582 C-37.77730566 15.5102275 -31.6918502 8.53506561 -23.33544922 3.2824707 C-15.70700071 -0.08187069 -8.20029018 -0.01681017 0 0 Z " fill="#FF0000" transform="translate(446.05029296875,717.725341796875)"/>
</svg>
