<?xml version="1.0" encoding="UTF-8"?>
<svg version="1.1" xmlns="http://www.w3.org/2000/svg" width="1000" height="1000">
<path d="M0 0 C1.34294967 -0.00285386 2.68589866 -0.00604724 4.02884674 -0.00957108 C11.05066118 -0.02796918 18.07240052 -0.0362531 25.09423828 -0.03466797 C31.60360886 -0.03346368 38.1126495 -0.05464839 44.62193656 -0.0861553 C50.24785767 -0.11240096 55.87367133 -0.12303208 61.4996531 -0.12175715 C64.84394358 -0.1212507 68.1877048 -0.12864041 71.53197479 -0.14811325 C75.25954948 -0.1678024 78.98627764 -0.16192451 82.71386719 -0.14990234 C83.80089432 -0.16114136 84.88792145 -0.17238037 86.00788879 -0.18395996 C96.05699582 -0.10198508 104.90305539 2.2720133 112.296875 9.34765625 C118.32423465 16.32021548 121.50559287 24.71535956 121.26953125 33.9375 C120.14358464 44.5733649 115.30672241 51.39691124 107.625 58.50390625 C100.72960917 63.34513125 94.16364998 63.77387635 86.00415039 63.73657227 C84.92813568 63.74355133 83.85212097 63.7505304 82.74349976 63.75772095 C79.20001307 63.77764883 75.65681893 63.77719742 72.11328125 63.77734375 C69.63194504 63.78912797 67.15061589 63.80249473 64.66929626 63.81736755 C58.13777207 63.85352876 51.60631032 63.87373832 45.07470703 63.88891602 C34.65424841 63.91374179 24.23392811 63.95388133 13.81359673 64.01081657 C10.19739821 64.02696805 6.58133305 64.03090805 2.96510315 64.03382874 C-23.99679541 64.11961524 -47.49082204 66.57334091 -68.984375 84.3359375 C-69.78488281 84.93792969 -70.58539063 85.53992188 -71.41015625 86.16015625 C-79.14289648 92.69602318 -85.01816877 101.53878782 -89.421875 110.5859375 C-89.72714111 111.19074951 -90.03240723 111.79556152 -90.34692383 112.41870117 C-97.29705755 127.62295889 -97.56679185 144.04623124 -97.50335693 160.41860962 C-97.50924333 162.70691459 -97.51687615 164.99521561 -97.526088 167.28350961 C-97.54622869 173.52517888 -97.54182567 179.7666193 -97.53318048 186.00830603 C-97.52872647 192.0620713 -97.54310213 198.11577445 -97.55694403 204.16951838 C-97.58458837 216.54036397 -97.59387973 228.91115832 -97.59249115 241.28203201 C-97.59117826 253.52004681 -97.59815763 265.75801129 -97.61606598 277.99601364 C-97.61717737 278.7586534 -97.61828876 279.52129317 -97.61943382 280.30704322 C-97.62512138 284.1805469 -97.63095569 288.05405033 -97.63684645 291.9275537 C-97.67824178 319.32051267 -97.70126487 346.71345905 -97.71337891 374.10644531 C-97.72518541 400.70834789 -97.74544599 427.31022243 -97.77685547 453.91210938 C-97.77882088 455.58667525 -97.78078605 457.26124112 -97.78275096 458.93580699 C-97.79876329 472.54367801 -97.81535669 486.15154831 -97.83209087 499.75941846 C-97.90897269 562.61825426 -97.94341658 625.47704714 -97.984375 688.3359375 C46.225625 688.3359375 190.435625 688.3359375 339.015625 688.3359375 C339.015625 634.2159375 339.015625 580.0959375 339.015625 524.3359375 C343.34414949 513.51462627 346.83160168 507.45796102 357.015625 502.3359375 C365.88661547 498.75342212 375.65744908 499.34089664 384.41015625 502.953125 C392.73261261 507.37014082 397.68986884 513.60582758 401.015625 522.3359375 C401.90402997 525.33366895 402.1423922 528.00684898 402.14705276 531.12950897 C402.15089391 532.09700655 402.15473505 533.06450414 402.1586926 534.06131983 C402.15782612 535.12160064 402.15695963 536.18188146 402.15606689 537.27429199 C402.16052358 538.96721823 402.16052358 538.96721823 402.1650703 540.694345 C402.17376842 544.49089889 402.17526654 548.28742129 402.17675781 552.08398438 C402.18084742 554.80085944 402.18638962 557.51773118 402.19180298 560.23460388 C402.20538726 567.6301005 402.21141259 575.02559169 402.21581364 582.42109871 C402.21857872 587.04588561 402.22281684 591.67067044 402.22731781 596.29545593 C402.23951594 609.11679198 402.24981071 621.93812636 402.2531929 634.75946808 C402.25341247 635.58025989 402.25363203 636.4010517 402.25385825 637.24671599 C402.25407653 638.0694249 402.25429481 638.8921338 402.2545197 639.73977327 C402.25496316 641.4067564 402.25540972 643.07373953 402.25585938 644.74072266 C402.2560808 645.56759596 402.25630223 646.39446927 402.25653037 647.24639934 C402.26046816 660.60866905 402.27788845 673.97088388 402.3012189 687.33313245 C402.32501552 701.07430861 402.3373987 714.81545737 402.33856082 728.55665445 C402.3394735 736.26244498 402.3451214 743.9681642 402.36338043 751.67393494 C402.37889472 758.24442759 402.38383635 764.81482697 402.37564233 771.38533449 C402.37177391 774.72964232 402.37415588 778.0736126 402.38669968 781.41792107 C402.4513756 799.75077918 401.9602928 817.98494913 396.265625 835.5859375 C396.00813477 836.40545898 395.75064453 837.22498047 395.48535156 838.06933594 C389.57449011 856.35539831 380.63543873 872.77461396 368.015625 887.3359375 C367.33113281 888.14160156 366.64664063 888.94726562 365.94140625 889.77734375 C355.9281956 901.26467159 345.03077523 910.47288524 332.015625 918.3359375 C331.37560547 918.72523438 330.73558594 919.11453125 330.07617188 919.515625 C321.43862676 924.66875502 312.53317572 928.47236312 303.015625 931.7109375 C302.07984619 932.03271973 301.14406738 932.35450195 300.17993164 932.68603516 C282.30950784 938.47200749 264.95302619 938.77903306 246.33701539 938.72811151 C242.61641999 938.72124816 238.89586478 938.73183785 235.17527771 938.74005127 C227.90938487 938.75331406 220.64358558 938.75054439 213.37768924 938.74181335 C207.46671531 938.73500762 201.55576739 938.73413249 195.64479065 938.7373848 C194.79996637 938.7378445 193.95514208 938.73830419 193.08471707 938.73877782 C191.36788157 938.73973711 189.65104608 938.74070975 187.9342106 938.7416956 C171.87708981 938.75022765 155.8200206 938.74044978 139.76290828 938.7242945 C126.01818258 938.71089331 112.27353292 938.71322202 98.52880859 938.72705078 C82.52481001 938.74314534 66.5208565 938.74940388 50.51685095 938.74021399 C48.80672042 938.73925845 47.09658989 938.73831534 45.38645935 938.7373848 C44.5452844 938.73692197 43.70410944 938.73645914 42.83744434 938.73598229 C36.94114339 938.733404 31.0448713 938.73773819 25.14857483 938.74482346 C17.95211291 938.75328189 10.75574901 938.75086782 3.55929816 938.73498122 C-0.10466293 938.72715644 -3.76846125 938.72390642 -7.43242073 938.73392868 C-21.91175493 938.77028848 -35.84318602 938.72356016 -49.984375 935.3359375 C-51.25927418 935.04801614 -51.25927418 935.04801614 -52.55992889 934.75427818 C-74.38453665 929.48741548 -95.47367162 918.57146559 -111.984375 903.3359375 C-112.61988281 902.7495752 -113.25539062 902.16321289 -113.91015625 901.55908203 C-129.04157772 887.40671125 -140.54012586 872.26669843 -148.984375 853.3359375 C-149.79841797 851.55509766 -149.79841797 851.55509766 -150.62890625 849.73828125 C-157.55939025 833.61393999 -161.14287118 816.38773849 -161.11859608 798.87942219 C-161.12094831 797.72586635 -161.12330054 796.57231052 -161.12572405 795.38379845 C-161.13123491 792.18104271 -161.13228727 788.97832134 -161.13144664 785.77556211 C-161.13161653 782.29126256 -161.13752712 778.80697192 -161.1426875 775.32267684 C-161.15200458 768.41140995 -161.15593405 761.50014947 -161.15820647 754.58887709 C-161.16117091 746.31031306 -161.16986982 738.03175751 -161.17862075 729.75319794 C-161.19945757 709.74220313 -161.20993424 689.73120685 -161.21875035 669.72020372 C-161.22295845 660.25034895 -161.22818026 650.78049482 -161.23343488 641.31064058 C-161.25132553 608.88442425 -161.26632033 576.45820772 -161.27375507 544.03198719 C-161.27422983 541.99649852 -161.27470572 539.96100985 -161.27518274 537.92552118 C-161.27541911 536.91611583 -161.27565549 535.90671049 -161.27589903 534.86671711 C-161.27710021 529.75269747 -161.27831566 524.63867784 -161.27954102 519.5246582 C-161.27978117 518.50977087 -161.28002132 517.49488354 -161.28026874 516.44924205 C-161.28815849 483.55756767 -161.31158339 450.66592939 -161.34409696 417.77427077 C-161.37842112 382.9873427 -161.39810866 348.20043575 -161.40139931 313.41349047 C-161.40181684 309.59200743 -161.4022964 305.7705244 -161.40282249 301.94904137 C-161.40294569 301.0081067 -161.40306888 300.06717204 -161.4031958 299.0977242 C-161.40552473 283.97644425 -161.42116765 268.85520633 -161.44166434 253.73394134 C-161.46195465 238.52313949 -161.46738452 223.31238793 -161.45789371 208.10157505 C-161.45269103 199.07412467 -161.45849765 190.04684214 -161.48042838 181.01941604 C-161.49399388 174.9766966 -161.49280906 168.93409196 -161.48002642 162.89137123 C-161.47316757 159.4564056 -161.47458253 156.0220175 -161.48958651 152.58704028 C-161.55196073 137.35687126 -160.83405909 123.11592945 -156.984375 108.3359375 C-156.69833336 107.23762016 -156.41229171 106.13930281 -156.11758214 105.00770313 C-155.44288055 102.56151362 -154.68585075 100.17222675 -153.859375 97.7734375 C-153.42322876 96.49073975 -153.42322876 96.49073975 -152.97827148 95.18212891 C-148.11265041 81.48584014 -141.09425871 68.6651249 -131.984375 57.3359375 C-130.92283203 55.97275391 -130.92283203 55.97275391 -129.83984375 54.58203125 C-108.16974217 27.29516079 -77.42262545 8.48531185 -42.984375 2.3359375 C-42.0900174 2.17003113 -41.19565979 2.00412476 -40.27420044 1.83319092 C-26.92229726 -0.29010406 -13.48641737 0.0075566 0 0 Z M-97.984375 751.3359375 C-99.75042018 807.3242924 -99.75042018 807.3242924 -73.7890625 851.55078125 C-56.89935846 868.32286897 -35.80914851 875.49502392 -12.27197266 875.47637939 C-11.09642854 875.47935052 -9.92088442 875.48232164 -8.70971775 875.4853828 C-5.45942907 875.49253871 -2.20917267 875.49524021 1.04112267 875.49598026 C4.55189109 875.49783759 8.0626482 875.5053884 11.57341003 875.51211548 C19.24524404 875.52567281 26.91707279 875.53171969 34.58891678 875.53612614 C39.38470825 875.53889343 44.18049772 875.54313171 48.97628784 875.54763031 C62.26956556 875.55982047 75.56284169 875.5701197 88.85612488 875.5735054 C90.13130544 875.57383475 90.13130544 875.57383475 91.43224722 875.57417075 C92.2843386 875.57438903 93.13642998 875.57460731 94.01434231 875.5748322 C95.74084409 875.57527566 97.46734587 875.57572222 99.19384766 875.57617188 C100.05024216 875.5763933 100.90663666 875.57661473 101.78898251 875.57684287 C115.65236085 875.58078729 129.51568652 875.59823157 143.37904453 875.6215314 C157.63218707 875.64529176 171.88530323 875.65770941 186.13846588 875.65887332 C194.13300955 875.65978754 202.1274846 875.6654758 210.12200928 875.68369293 C216.93228684 875.69915741 223.74247458 875.70417726 230.55276638 875.69595483 C234.02199751 875.6920704 237.49104812 875.6928685 240.96025658 875.70701218 C265.22787832 875.98429718 265.22787832 875.98429718 288.265625 869.0859375 C288.92836426 868.78220215 289.59110352 868.4784668 290.27392578 868.16552734 C310.90634399 858.47174036 325.6141913 842.48865963 334.015625 821.3359375 C341.75140216 799.00983028 339.015625 774.38448498 339.015625 751.3359375 C194.805625 751.3359375 50.595625 751.3359375 -97.984375 751.3359375 Z " fill="#FF0000" transform="translate(160.984375,61.6640625)"/>
<path d="M0 0 C4.61281383 0.01124045 9.22557999 -0.00087522 13.83839071 -0.00984204 C22.84354002 -0.023687 31.84854794 -0.0162843 40.85369036 -0.00116646 C51.36156243 0.01579516 61.86940027 0.01247081 72.37728181 0.00873946 C91.13447283 0.00287728 109.89159647 0.0169697 128.64876974 0.04168689 C146.81318342 0.06561996 164.97750717 0.07268234 183.1419338 0.06219471 C202.97201786 0.05076571 222.80206046 0.04887857 242.63214403 0.0632928 C244.74942795 0.06481849 246.86671187 0.06633885 248.9839958 0.06785381 C250.54621589 0.06899053 250.54621589 0.06899053 252.139996 0.07015022 C259.45000302 0.07487639 266.75999142 0.0730536 274.06999815 0.06878841 C282.98460399 0.0638439 291.8991251 0.06992579 300.81371162 0.08968271 C305.35463368 0.09950136 309.89542719 0.10471893 314.43635595 0.09679019 C318.6042341 0.08966205 322.77185446 0.09670189 326.93969896 0.11439382 C328.4359643 0.11839249 329.93225369 0.11751705 331.42850963 0.11087496 C345.08408025 0.05551004 358.34735089 1.97523204 371.50692403 5.69573963 C372.24088399 5.90295642 372.97484396 6.11017322 373.73104513 6.32366931 C412.87274669 17.93046191 445.53353679 45.76839512 465.25643575 81.15057361 C478.9039627 106.45025257 483.88183602 131.77893157 483.84408224 160.27679431 C483.84843635 162.45799928 483.85362182 164.63920273 483.85956991 166.82040393 C483.8728969 172.71316701 483.87354554 178.6058657 483.87100661 184.49864089 C483.86993245 189.43355788 483.87483167 194.36846208 483.87961203 199.30337632 C483.89068578 210.95500727 483.89115686 222.60660597 483.88509786 234.25823963 C483.87906149 246.24211114 483.89136548 258.22582501 483.91266793 270.20968306 C483.93033457 280.53115214 483.93627726 290.85258399 483.93303019 301.17406762 C483.93122501 307.3241744 483.93377655 313.47419738 483.94774473 319.62429035 C483.96040082 325.41268827 483.95830591 331.20090424 483.94533384 336.98929965 C483.94298524 339.10107094 483.94564031 341.21285534 483.95395696 343.32461154 C483.9992581 355.7321809 483.2338842 367.37600682 480.56942403 379.50823963 C480.36603571 380.43888107 480.1626474 381.36952251 479.95309579 382.32836521 C479.48355941 384.38712579 478.95635983 386.41393894 478.38192403 388.44573963 C478.17470724 389.17969959 477.96749044 389.91365955 477.75399435 390.66986072 C466.14720175 429.81156228 438.30926854 462.47235238 402.92709005 482.19525135 C388.87304818 489.77649044 374.20442847 495.25154443 358.56942403 498.50823963 C357.22022737 498.79800867 357.22022737 498.79800867 355.8437742 499.09363163 C349.59319514 500.2580898 343.98658965 500.51498592 337.68323934 499.77917469 C324.01454357 498.39450295 311.87956068 498.55118416 300.68017232 507.33941638 C291.84043456 514.70212781 283.9728045 523.14165488 276.12819159 531.5324105 C272.14261023 535.75477723 268.05292131 539.87394522 263.97364461 544.00549304 C256.28507608 551.82263269 248.68834706 559.72271658 241.12360865 567.65955603 C230.83920085 578.44131755 220.42861778 589.09955434 210.02063918 599.76182878 C207.51368059 602.33020103 205.00716551 604.89900475 202.50098836 607.46813953 C201.68820179 608.30119735 200.87541521 609.13425517 200.03799874 609.99255717 C195.23036651 614.92576564 190.44500006 619.87934319 185.67967129 624.85342348 C182.71909117 627.94292184 179.75111589 631.02526308 176.78264654 634.10717952 C175.41338999 635.53325346 174.04794625 636.96300005 172.68671262 638.39673412 C163.33994129 648.23982231 154.70947952 657.2132767 140.25692403 657.82073963 C131.49852453 657.59654851 123.82973335 654.64589129 117.53426778 648.53167713 C109.16659917 639.69323224 108.12377501 632.22616983 108.22884786 620.39105213 C108.22840978 619.09265903 108.2279717 617.79426593 108.22752035 616.45652759 C108.22666401 612.91773133 108.24423048 609.37924373 108.26524222 605.84051883 C108.28406987 602.13431628 108.28576424 598.42810567 108.28931844 594.72186267 C108.29862111 587.71324136 108.32321061 580.7047614 108.35336691 573.69620216 C108.38696651 565.71311718 108.40341087 557.73002524 108.41845322 549.74688709 C108.44976191 533.33392202 108.50248752 516.9210989 108.56942403 500.50823963 C107.85271976 500.5119268 107.13601549 500.51561397 106.3975929 500.51941288 C88.85664719 500.60823727 71.31575952 500.67417726 53.77463758 500.71548831 C45.2914367 500.73600348 36.8083871 500.76390912 28.32528341 500.80999744 C20.92054894 500.85020741 13.51592415 500.87575238 6.11108351 500.88459361 C2.20008469 500.88975141 -1.71060069 500.90163473 -5.62149775 500.93115985 C-51.70814291 501.2651062 -92.33686167 489.5081646 -126.04532206 456.84661853 C-127.23983741 455.69252387 -128.45269679 454.55747104 -129.66885722 453.42620838 C-156.41311326 427.96824922 -172.44445542 388.11769887 -173.48863733 351.47048438 C-173.58884326 345.52572856 -173.57762082 339.58036497 -173.57583964 333.63494861 C-173.57883601 331.63299994 -173.58223963 329.63105184 -173.58601725 327.6291045 C-173.59481433 322.21549369 -173.59719359 316.80189872 -173.59783304 311.38828146 C-173.59854615 307.99751597 -173.60068544 304.60675445 -173.60333025 301.21598995 C-173.61257055 289.36215068 -173.61666692 277.50832261 -173.6158787 265.65447986 C-173.61527875 254.64545839 -173.62581769 243.63648604 -173.64162236 232.62747699 C-173.65474736 223.14339821 -173.6600605 213.65933539 -173.65942329 204.17524761 C-173.6591697 198.52532176 -173.6619437 192.87543959 -173.67260134 187.22552288 C-173.68236579 181.90420411 -173.682305 176.58297002 -173.67508471 171.26164806 C-173.67404905 169.32284152 -173.67634015 167.38402947 -173.68244517 165.44523227 C-173.72798828 149.96308896 -173.21576601 134.42483171 -169.18057597 119.38323963 C-168.9644163 118.55469471 -168.74825663 117.72614978 -168.52554667 116.87249744 C-157.88639013 77.35021183 -132.67662095 42.66573195 -97.29141581 21.76751697 C-66.12983637 3.92352936 -35.37727866 -0.12029329 0 0 Z M-86.05557597 94.19573963 C-104.34702892 115.36670574 -110.07233454 139.16693319 -109.94815409 166.54339588 C-109.95358963 168.58578983 -109.96072022 170.62817986 -109.96939433 172.67056262 C-109.98746051 178.16236555 -109.9806299 183.65386423 -109.96787798 189.14567173 C-109.95766291 194.9267729 -109.96716705 200.70785018 -109.97342265 206.48895252 C-109.98067449 216.19236862 -109.9711763 225.89566245 -109.95206034 235.59905994 C-109.93029647 246.77474157 -109.93734958 257.95013117 -109.95936596 269.12580574 C-109.97759046 278.76715975 -109.98004398 288.40842648 -109.96961129 298.04979217 C-109.96341495 303.78795322 -109.96243331 309.52597757 -109.97575724 315.26412952 C-109.98741833 320.66198325 -109.979105 326.05946502 -109.95618021 331.45727909 C-109.95094741 333.42349751 -109.95231211 335.38974793 -109.96123087 337.3559531 C-110.0802531 366.29059754 -101.87651708 390.60186574 -81.43838847 411.65667713 C-61.54277715 431.12982025 -35.66600107 437.83888885 -8.5455662 437.76361072 C-6.87693451 437.76636652 -5.20830413 437.77004997 -3.53967631 437.77458179 C0.03039042 437.78264225 3.60039473 437.78487538 7.17046964 437.78263462 C12.82433393 437.77978203 18.47807524 437.79422453 24.13190877 437.81161487 C40.20114992 437.85846064 56.27038121 437.88258337 72.33968771 437.889099 C81.2324786 437.89285675 90.12512872 437.91093752 99.01785928 437.94419336 C104.62976603 437.96432723 110.2413078 437.96681789 115.85323572 437.95591319 C119.35228311 437.95329432 122.85112058 437.96736618 126.35011327 437.98599422 C127.96289016 437.99128696 129.57570642 437.98986977 131.18846738 437.98095882 C143.06166731 437.92068386 153.82064586 438.8605306 162.84676778 447.44183338 C168.97107998 454.78823055 170.70611685 462.45903065 170.7747463 471.76507556 C170.7846459 472.59471317 170.79454549 473.42435077 170.80474508 474.27912891 C170.83629147 477.01692861 170.86109037 479.75474566 170.88583028 482.49261463 C170.90640573 484.39262324 170.92740236 486.29262734 170.94880331 488.19262683 C171.00396291 493.19027026 171.05339914 498.18795457 171.1016506 503.18566883 C171.15191024 508.28671897 171.20757301 513.38770983 171.26278341 518.48870838 C171.37029024 528.49516813 171.47175181 538.50167939 171.56942403 548.50823963 C177.50024548 543.59868058 182.90241102 538.27927543 188.30917013 532.80267322 C189.27069654 531.83266295 190.23249106 530.86291836 191.19453084 529.89341724 C193.25389518 527.81743039 195.31185165 525.74006161 197.36884344 523.66172397 C200.62700964 520.37073595 203.89130546 517.08587412 207.15697896 513.80233753 C207.70997022 513.24625981 208.26296147 512.6901821 208.83271003 512.11725354 C209.96277312 510.9808836 211.09284478 509.84452218 212.22292483 508.7081691 C219.8157077 501.07249613 227.40388674 493.43233555 234.97762716 485.77777088 C240.1000655 480.6007635 245.23142043 475.43277673 250.37305737 470.27483416 C253.08797497 467.55057243 255.79816354 464.82195777 258.49741399 462.08216465 C261.03609902 459.5054519 263.58638291 456.94080311 266.14576566 454.38465297 C267.52057497 453.0054902 268.88291158 451.61392855 270.24473226 450.22193897 C277.34423102 443.16857837 284.75055102 438.43805509 294.9922756 438.35052478 C296.29578969 438.33513156 296.29578969 438.33513156 297.62563741 438.31942737 C298.56099325 438.31212604 299.49634908 438.30482471 300.46004903 438.29730213 C302.47047327 438.26919256 304.48088981 438.24052793 306.49129903 438.21136463 C309.63712666 438.17045913 312.78281698 438.13355005 315.92879903 438.10687244 C343.59491119 437.85233016 366.94222678 432.87896856 388.56942403 414.50823963 C389.54524435 413.73351306 390.52106466 412.9587865 391.52645528 412.16058338 C408.35070423 398.10518621 418.14325611 374.83836457 420.56942403 353.50823963 C420.93974672 346.84412247 420.8536972 340.16153495 420.84408224 333.48968494 C420.84843641 331.48434245 420.8536219 329.47900161 420.85956991 327.47366321 C420.87289658 322.05609799 420.87354556 316.6386028 420.87100661 311.22102439 C420.86993239 306.68371539 420.87483185 302.1464203 420.87961203 297.60911429 C420.89068575 286.89579119 420.89115693 276.18250317 420.88509786 265.46917713 C420.87906205 254.45154507 420.8913641 243.43404085 420.91266793 232.41643059 C420.93033692 222.92641227 420.93627688 213.43643443 420.93303019 203.94640028 C420.93122531 198.29206396 420.93377336 192.63781879 420.94774473 186.9834975 C420.96040463 181.66131125 420.95830243 176.33932285 420.94533384 171.01713932 C420.94298602 169.07587986 420.94563744 167.13460612 420.95395696 165.19336307 C421.05898506 138.75802206 414.99468229 116.02236833 397.56942403 95.50823963 C396.40733419 94.04450916 396.40733419 94.04450916 395.22176778 92.55120838 C381.06996058 75.61155705 357.96405003 66.14948178 336.56942403 63.50823963 C331.54295626 63.23753741 326.5232884 63.23293121 321.49111593 63.24754322 C319.99898268 63.24451666 318.50685099 63.24062466 317.01472199 63.23595065 C312.94532715 63.22572672 308.87602097 63.22783807 304.80661905 63.23213124 C300.4056553 63.23460874 296.00471233 63.2255716 291.60375631 63.21809375 C282.99332384 63.2053727 274.38292259 63.20354985 265.77248231 63.20589402 C258.76966035 63.20768038 251.76684783 63.20592071 244.764027 63.20166957 C243.76559168 63.20107438 242.76715635 63.2004792 241.73846541 63.19986597 C239.70982152 63.19865416 237.68117763 63.19744002 235.65253374 63.19622359 C216.64589654 63.18535786 197.6392771 63.18750586 178.6326389 63.19360844 C161.26863185 63.19877568 143.90468092 63.18752551 126.54068497 63.16851022 C108.68602657 63.14910842 90.8313947 63.14087999 72.9767257 63.14463347 C62.96288029 63.1465421 52.94908264 63.14409112 42.93524587 63.12991893 C34.409413 63.11797422 25.88365728 63.11663473 17.35782328 63.1287091 C13.01353594 63.13457639 8.6693895 63.13575722 4.32511175 63.1237067 C0.33761905 63.11277504 -3.64961636 63.11603664 -7.63709739 63.12996838 C-9.0690461 63.13259547 -10.50101546 63.13031239 -11.93294379 63.12223252 C-40.73706023 62.97116017 -66.08329505 73.08317278 -86.05557597 94.19573963 Z " fill="#FF0000" transform="translate(516.430575966835,-0.5082396268844604)"/>
<path d="M0 0 C10.5578918 8.54874075 16.86428711 18.21900558 19.09375 31.6953125 C20.02711678 46.23429509 17.48300575 58.70701248 7.84375 69.8203125 C0.07080127 78.08778815 -9.22116875 84.84150852 -20.9140625 85.87231445 C-37.51478683 86.35280129 -49.81669691 84.14016572 -62.3515625 72.40625 C-71.46757811 62.92920407 -75.71301951 51.94751686 -76.21875 38.8828125 C-75.86709714 24.90461139 -70.85999354 14.11862443 -61.42578125 4.05859375 C-44.72435983 -11.60708061 -18.70008189 -13.48303006 0 0 Z " fill="#FF0000" transform="translate(543.90625,211.3046875)"/>
<path d="M0 0 C0.84691406 0.4125 1.69382812 0.825 2.56640625 1.25 C14.12787004 7.46318359 20.85464094 17.35026259 25.25 29.4375 C28.41177423 44.45592759 26.3356363 57.51656923 18.3125 70.5625 C11.28850561 80.59178552 1.05946847 87.43635434 -11 90 C-27.70222759 91.31954396 -40.26072679 88.68228467 -53.6875 78.3125 C-62.24131272 70.54547666 -67.5851953 59.10800597 -68.37890625 47.66015625 C-68.96660617 32.87075037 -65.30596521 20.15063964 -55.15625 8.96875 C-40.76405898 -4.47969079 -17.89209733 -9.27953184 0 0 Z " fill="#FF0000" transform="translate(849,207)"/>
<path d="M0 0 C10.69577942 7.33528115 17.83237388 17.68634661 20.3125 30.5859375 C21.96218156 46.06117783 18.95334032 59.10025905 9.3125 71.5859375 C1.17721264 80.54854222 -10.13058772 86.30842194 -22.23828125 86.921875 C-31.41048748 87.09531308 -39.37264309 86.89834303 -47.6875 82.5859375 C-48.53441406 82.1734375 -49.38132812 81.7609375 -50.25390625 81.3359375 C-61.63229305 75.22114032 -68.63522976 65.40840059 -72.79296875 53.390625 C-75.81898751 40.52013474 -74.79504475 26.03824606 -67.921875 14.6640625 C-52.39360038 -7.95586509 -23.44134686 -15.01711283 0 0 Z " fill="#FF0000" transform="translate(698.6875,210.4140625)"/>
</svg>
