<?xml version="1.0" encoding="UTF-8"?>
<svg version="1.1" xmlns="http://www.w3.org/2000/svg" width="1000" height="1000">
<path d="M0 0 C1.18581691 -0.00445784 2.37163381 -0.00891569 3.59338456 -0.01350862 C4.8872339 -0.01332426 6.18108324 -0.01313989 7.51414013 -0.01294994 C8.90963584 -0.01625179 10.30513061 -0.01997804 11.70062417 -0.02409142 C15.5307842 -0.03408338 19.36092855 -0.0378237 23.19109976 -0.04048073 C27.32428914 -0.04439223 31.45746621 -0.05397009 35.5906477 -0.0626936 C45.57125843 -0.08243607 55.55187015 -0.09252225 65.53249553 -0.10142139 C70.23782576 -0.10580867 74.94315488 -0.11117441 79.64848423 -0.11641026 C95.29990721 -0.13342173 110.95132951 -0.14791391 126.60276031 -0.155159 C130.66242823 -0.15706876 134.72209614 -0.15898911 138.78176403 -0.16094494 C140.29519913 -0.16167055 140.29519913 -0.16167055 141.83920868 -0.16241082 C158.16829013 -0.17070366 174.49729815 -0.19602833 190.82634757 -0.22852562 C207.60843523 -0.26165089 224.39048565 -0.27961277 241.17260617 -0.28280324 C250.58800383 -0.28496348 260.00329447 -0.29364049 269.41866016 -0.31926441 C277.44066842 -0.34104638 285.46254364 -0.34898522 293.48457811 -0.33929763 C297.5717927 -0.33477429 301.65873326 -0.33652331 305.74590969 -0.35605907 C337.23624278 -0.49834136 337.23624278 -0.49834136 350.99929333 4.13422108 C351.84093186 4.40920775 352.6825704 4.68419443 353.54971313 4.96751404 C363.32121357 8.47255323 371.83136475 13.81208962 379.99929333 20.13422108 C380.79722301 20.74781483 381.5951527 21.36140858 382.41726208 21.99359608 C400.9896559 37.37745503 412.1399612 60.91747114 414.46901989 84.68939686 C415.61263396 99.12249605 415.70078613 113.66390285 415.99929333 128.13422108 C417.12722301 128.40234608 418.2551527 128.67047108 419.41726208 128.94672108 C460.34869132 139.00352923 495.78829671 159.83839117 518.56179333 196.13812733 C537.50907612 227.65958707 540.168995 263.14945524 540.1330061 299.05740833 C540.13488056 300.86977804 540.13718375 302.68214734 540.13987142 304.49451602 C540.14591703 309.4121511 540.14586451 314.32976901 540.14467704 319.24740696 C540.14447119 324.57540866 540.15000911 329.90340511 540.15473461 335.2314043 C540.16300095 345.64483309 540.16578759 356.05825622 540.16634699 366.47168802 C540.1668239 374.94213264 540.1688873 383.41257541 540.17204762 391.88301945 C540.18084183 415.9465878 540.18546872 440.01015172 540.18471714 464.07372169 C540.18465721 466.01502631 540.18465721 466.01502631 540.18459606 467.9955492 C540.18453474 469.93924774 540.18453474 469.93924774 540.18447218 471.92221291 C540.18406566 492.92553093 540.19363993 513.92883102 540.20773443 534.93214385 C540.22212291 556.5455017 540.22900331 578.15885082 540.22814065 599.77221358 C540.22780962 611.88763508 540.23051555 624.00303777 540.2413187 636.11845493 C540.25045612 646.43097599 540.25257231 656.7434697 540.24580928 667.05599307 C540.24256089 672.3083678 540.24242614 677.56069016 540.25116253 682.81305981 C540.32912584 732.80517268 540.32912584 732.80517268 535.81179333 753.25922108 C535.59821178 754.24801258 535.38463024 755.23680408 535.16457653 756.25555897 C526.14364495 796.16062992 503.88095156 831.69451951 469.09304333 853.85883045 C453.7946998 863.17769083 433.20788846 873.13422108 414.99929333 873.13422108 C415.01500378 874.52991322 415.01500378 874.52991322 415.03103161 875.95380116 C415.3582353 909.45904464 415.48677105 941.56152383 391.99929333 968.13422108 C391.55585583 968.71945545 391.11241833 969.30468983 390.65554333 969.90765858 C377.67260451 986.76964619 354.66080133 997.17724508 333.99929333 1000.13422108 C332.00052016 1000.22282024 329.99931945 1000.26493849 327.99858665 1000.26844215 C326.81276975 1000.2729 325.62695284 1000.27735784 324.40520209 1000.28195077 C323.11135275 1000.28176641 321.81750342 1000.28158205 320.48444653 1000.2813921 C319.08895081 1000.28469395 317.69345605 1000.28842019 316.29796249 1000.29253358 C312.46780246 1000.30252554 308.6376581 1000.30626586 304.80748689 1000.30892289 C300.67429752 1000.31283438 296.54112045 1000.32241225 292.40793896 1000.33113575 C282.42732822 1000.35087822 272.4467165 1000.3609644 262.46609113 1000.36986354 C257.76076089 1000.37425083 253.05543178 1000.37961656 248.35010242 1000.38485241 C232.69867944 1000.40186388 217.04725715 1000.41635606 201.39582634 1000.42360115 C197.33615843 1000.42551091 193.27649052 1000.42743126 189.21682262 1000.42938709 C188.20786589 1000.42987083 187.19890915 1000.43035457 186.15937797 1000.43085297 C169.83029652 1000.43914581 153.5012885 1000.46447048 137.17223909 1000.49696777 C120.39015142 1000.53009304 103.608101 1000.54805492 86.82598048 1000.55124539 C77.41058282 1000.55340563 67.99529219 1000.56208265 58.57992649 1000.58770657 C50.55791824 1000.60948853 42.53604302 1000.61742738 34.51400854 1000.60773978 C30.42679395 1000.60321644 26.33985339 1000.60496546 22.25267696 1000.62450123 C-9.23765613 1000.76678352 -9.23765613 1000.76678352 -23.00070667 996.13422108 C-23.84234521 995.8592344 -24.68398375 995.58424772 -25.55112648 995.30092812 C-35.32262692 991.79588893 -43.83277809 986.45635254 -52.00070667 980.13422108 C-52.79863636 979.52062733 -53.59656605 978.90703358 -54.41867542 978.27484608 C-72.99106924 962.89098713 -84.14137454 939.35097101 -86.47043324 915.5790453 C-87.61404731 901.14594611 -87.70219948 886.6045393 -88.00070667 872.13422108 C-89.12863636 871.86609608 -90.25656605 871.59797108 -91.41867542 871.32172108 C-132.35010466 861.26491292 -167.78971006 840.43005098 -190.56320667 804.13031483 C-209.51048947 772.60885509 -212.17040834 737.11898691 -212.13441944 701.21103382 C-212.1362939 699.39866412 -212.1385971 697.58629482 -212.14128476 695.77392614 C-212.14733037 690.85629105 -212.14727786 685.93867314 -212.14609039 681.02103519 C-212.14588453 675.69303349 -212.15142246 670.36503704 -212.15614796 665.03703785 C-212.1644143 654.62360906 -212.16720094 644.21018593 -212.16776033 633.79675414 C-212.16823724 625.32630951 -212.17030065 616.85586674 -212.17346096 608.38542271 C-212.18225518 584.32185435 -212.18688206 560.25829044 -212.18613049 536.19472046 C-212.18609053 534.90051738 -212.18605057 533.60631431 -212.18600941 532.27289295 C-212.18596853 530.97709393 -212.18592765 529.6812949 -212.18588553 528.34622924 C-212.18547901 507.34291123 -212.19505327 486.33961113 -212.20914777 465.3362983 C-212.22353626 443.72294045 -212.23041666 422.10959133 -212.229554 400.49622858 C-212.22922297 388.38080707 -212.2319289 376.26540438 -212.24273205 364.14998722 C-212.25186947 353.83746616 -212.25398565 343.52497246 -212.24722262 333.21244909 C-212.24397424 327.96007435 -212.24383949 322.70775199 -212.25257587 317.45538235 C-212.33053919 267.46326947 -212.33053919 267.46326947 -207.81320667 247.00922108 C-207.59962513 246.02042957 -207.38604359 245.03163807 -207.16598988 244.01288319 C-198.1450583 204.10781224 -175.88236491 168.57392264 -141.09445667 146.4096117 C-125.79611315 137.09075133 -105.20930181 127.13422108 -87.00070667 127.13422108 C-87.01118031 126.20375965 -87.02165394 125.27329823 -87.03244495 124.314641 C-87.35964864 90.80939751 -87.48818439 58.70691833 -64.00070667 32.13422108 C-63.55726917 31.5489867 -63.11383167 30.96375233 -62.65695667 30.36078358 C-48.95724303 12.56786282 -22.29429646 0.03904155 0 0 Z M-17.00070667 75.13422108 C-26.91753175 90.93471271 -23.00070667 102.91969673 -23.00070667 124.13422108 C100.41929333 124.13422108 223.83929333 124.13422108 350.99929333 124.13422108 C353.24926289 94.91207077 353.24926289 94.91207077 341.28835583 71.07953358 C334.91552777 65.66371724 327.79369419 63.01526531 319.50903511 63 C318.38620123 62.99554216 317.26336735 62.99108431 316.1065082 62.98649138 C314.87277753 62.98667574 313.63904686 62.98686011 312.36793041 62.98705006 C311.05737008 62.98337337 309.74680974 62.97969668 308.39653546 62.97590858 C304.7555013 62.96589595 301.11448364 62.96217297 297.47343767 62.95951927 C293.54755509 62.95561399 289.62168553 62.94603576 285.69581127 62.9373064 C276.21273331 62.91754759 266.7296543 62.90747621 257.2465609 62.89857861 C252.77954053 62.89419448 248.31252134 62.88882797 243.8455019 62.88358974 C228.99365103 62.86657752 214.1418009 62.85208392 199.28994179 62.844841 C195.43614164 62.84293114 191.5823415 62.84101081 187.72854137 62.83905506 C186.77071084 62.83857132 185.8128803 62.83808758 184.8260246 62.83758918 C169.31400967 62.82929104 153.80207191 62.80395774 138.29009067 62.77147438 C122.36012456 62.73838805 106.43019764 62.72039079 90.50019699 62.71719676 C81.55779934 62.71503305 72.6155142 62.70630479 63.67315006 62.68073559 C56.05642356 62.65900702 48.4398369 62.65098874 40.82308292 62.66070237 C36.93914697 62.66524094 33.05549942 62.66338699 29.1716032 62.64394093 C25.61019263 62.62626409 22.04927986 62.62734297 18.48786367 62.64283822 C16.60131395 62.64632284 14.71475874 62.63022164 12.8282823 62.61323375 C0.80714749 62.70363173 -9.05786906 65.78782983 -17.00070667 75.13422108 Z M-117.00070667 208.13422108 C-118.10865589 209.10101795 -118.10865589 209.10101795 -119.23898792 210.08734608 C-137.17058663 226.81111689 -145.04061599 251.40641159 -148.00070667 275.13422108 C-148.08967957 277.78635799 -148.13704197 280.41117822 -148.12934113 283.06235313 C-148.13109416 283.83444572 -148.1328472 284.60653831 -148.13465336 285.40202764 C-148.13930137 287.986488 -148.13685094 290.57089182 -148.13441944 293.1553545 C-148.13628803 295.02820282 -148.13858892 296.90105075 -148.14128476 298.77389807 C-148.14740348 303.91877455 -148.14726908 309.0636348 -148.14609039 314.20851409 C-148.1458864 319.75813382 -148.15140506 325.30774832 -148.15614796 330.85736561 C-148.16445589 341.73043975 -148.16720288 352.60350847 -148.16776033 363.47658551 C-148.16823551 372.31640299 -148.17029032 381.15621867 -148.17346096 389.99603558 C-148.18083529 410.98324697 -148.18698572 431.9704574 -148.1864624 452.95767021 C-148.18644682 453.62875646 -148.18643124 454.29984271 -148.18641519 454.9912649 C-148.18633209 458.39248756 -148.18623305 461.79371022 -148.18613049 465.19493289 C-148.18611054 465.87040729 -148.1860906 466.5458817 -148.18607005 467.24182503 C-148.18602961 468.6078 -148.18598781 469.97377498 -148.18594465 471.33974995 C-148.1853322 492.58171267 -148.19283316 513.82365941 -148.20651722 535.06561756 C-148.22189144 558.94097304 -148.23046994 582.81631811 -148.229554 606.69167989 C-148.22922216 619.32906472 -148.23196324 631.96643153 -148.24273205 644.60381222 C-148.25184378 655.36556587 -148.25400682 666.12729334 -148.24722262 676.88904918 C-148.2439606 682.3772977 -148.24388927 687.86549602 -148.25257587 693.35373974 C-148.26045595 698.38429 -148.25899402 703.41475038 -148.25029174 708.44529849 C-148.24876006 710.25892028 -148.25056034 712.07254883 -148.25615182 713.88616265 C-148.32601736 738.16810635 -144.63008738 762.27155578 -128.00070667 781.13422108 C-127.35617542 781.87285389 -126.71164417 782.6114867 -126.04758167 783.37250233 C-109.32381086 801.30410103 -84.72851616 809.1741304 -61.00070667 812.13422108 C-58.34856976 812.22319398 -55.72374953 812.27055637 -53.07257462 812.26285553 C-52.30048203 812.26460857 -51.52838944 812.2663616 -50.73290011 812.26816776 C-48.14843975 812.27281578 -45.56403593 812.27036534 -42.97957325 812.26793385 C-41.10672493 812.26980243 -39.233877 812.27210332 -37.36102968 812.27479917 C-32.2161532 812.28091788 -27.07129295 812.28078348 -21.92641366 812.27960479 C-16.37679393 812.2794008 -10.82717943 812.28491947 -5.27756214 812.28966236 C5.595512 812.29797029 16.46858072 812.30071728 27.34165777 812.30127474 C36.18147524 812.30174991 45.02129092 812.30380472 53.86110783 812.30697536 C74.84831922 812.31434969 95.83552965 812.32050013 116.82274246 812.31997681 C117.82937183 812.31995344 117.82937183 812.31995344 118.85633715 812.3199296 C122.25755981 812.31984649 125.65878247 812.31974745 129.06000514 812.31964489 C129.73547954 812.31962495 130.41095395 812.319605 131.10689728 812.31958445 C132.47287225 812.31954401 133.83884723 812.31950222 135.2048222 812.31945906 C156.44678492 812.3188466 177.68873166 812.32634757 198.93068981 812.34003162 C222.80604529 812.35540584 246.68139036 812.36398434 270.55675215 812.3630684 C283.19413697 812.36273657 295.83150378 812.36547764 308.46888447 812.37624645 C319.23063812 812.38535818 329.99236559 812.38752122 340.75412143 812.38073703 C346.24236995 812.377475 351.73056827 812.37740368 357.21881199 812.38609028 C362.24936225 812.39397035 367.27982263 812.39250843 372.31037074 812.38380615 C374.12399253 812.38227446 375.93762108 812.38407474 377.7512349 812.38966622 C402.03317861 812.45953177 426.13662803 808.76360178 444.99929333 792.13422108 C445.73792614 791.48968983 446.47655895 790.84515858 447.23757458 790.18109608 C465.16917328 773.45732527 473.03920265 748.86203056 475.99929333 725.13422108 C476.08826623 722.48208417 476.13562862 719.85726394 476.12792778 717.20608902 C476.12968082 716.43399643 476.13143385 715.66190385 476.13324001 714.86641452 C476.13788803 712.28195415 476.13543759 709.69755034 476.1330061 707.11308765 C476.13487468 705.24023933 476.13717557 703.3673914 476.13987142 701.49454409 C476.14599013 696.3496676 476.14585573 691.20480736 476.14467704 686.05992806 C476.14447305 680.51030834 476.14999172 674.96069384 476.15473461 669.41107655 C476.16304254 658.53800241 476.16578953 647.66493369 476.16634699 636.79185664 C476.16682216 627.95203917 476.16887697 619.11222348 476.17204762 610.27240658 C476.17942194 589.28519518 476.18557238 568.29798476 476.18504906 547.31077194 C476.18503348 546.63968569 476.1850179 545.96859945 476.18500185 545.27717725 C476.18491874 541.87595459 476.1848197 538.47473193 476.18471714 535.07350927 C476.1846972 534.39803486 476.18467725 533.72256046 476.1846567 533.02661713 C476.18461626 531.66064215 476.18457447 530.29466718 476.18453131 528.9286922 C476.18391885 507.68672948 476.19141982 486.44478274 476.20510387 465.20282459 C476.22047809 441.32746911 476.22905659 417.45212404 476.22814065 393.57676226 C476.22780882 380.93937744 476.23054989 368.30201063 476.2413187 355.66462994 C476.25043043 344.90287629 476.25259347 334.14114881 476.24580928 323.37939297 C476.24254725 317.89114446 476.24247593 312.40294614 476.25116253 306.91470242 C476.2590426 301.88415216 476.25758068 296.85369177 476.2488784 291.82314367 C476.24734671 290.00952188 476.24914699 288.19589333 476.25473847 286.38227951 C476.32460402 262.1003358 472.62867403 237.99688638 455.99929333 219.13422108 C455.35476208 218.39558826 454.71023083 217.65695545 454.04616833 216.89593983 C437.32239752 198.96434112 412.72710281 191.09431176 388.99929333 188.13422108 C386.34715642 188.04524818 383.72233619 187.99788578 381.07116127 188.00558662 C380.29906868 188.00383359 379.5269761 188.00208055 378.73148677 188.00027439 C376.1470264 187.99562638 373.56262259 187.99807681 370.9781599 188.00050831 C369.10531158 187.99863972 367.23246365 187.99633883 365.35961634 187.99364299 C360.21473985 187.98752427 355.06987961 187.98765867 349.92500031 187.98883736 C344.37538059 187.98904135 338.82576609 187.98352269 333.2761488 187.97877979 C322.40307466 187.97047186 311.53000594 187.96772487 300.65692889 187.96716741 C291.81711142 187.96669224 282.97729573 187.96463743 274.13747883 187.96146679 C253.15026743 187.95409246 232.16305701 187.94794203 211.17584419 187.94846535 C210.16921482 187.94848872 210.16921482 187.94848872 209.1422495 187.94851256 C205.74102684 187.94859566 202.33980418 187.9486947 198.93858152 187.94879726 C198.26310711 187.94881721 197.58763271 187.94883715 196.89168938 187.9488577 C195.5257144 187.94889814 194.15973943 187.94893994 192.79376445 187.94898309 C171.55180174 187.94959555 150.30985499 187.94209459 129.06789684 187.92841053 C105.19254136 187.91303631 81.31719629 187.90445781 57.44183451 187.90537375 C44.80444969 187.90570559 32.16708288 187.90296451 19.52970219 187.8921957 C8.76794854 187.88308397 -1.99377894 187.88092093 -12.75553478 187.88770512 C-18.24378329 187.89096715 -23.73198161 187.89103848 -29.22022533 187.88235188 C-34.25077559 187.8744718 -39.28123597 187.87593373 -44.31178408 187.88463601 C-46.12540587 187.88616769 -47.93903442 187.88436741 -49.75264824 187.87877593 C-74.03459195 187.80891039 -98.13804137 191.50484037 -117.00070667 208.13422108 Z M-23.00070667 876.13422108 C-25.25067624 905.35637139 -25.25067624 905.35637139 -13.28976917 929.18890858 C-6.91694111 934.60472492 0.20489247 937.25317685 8.48955154 937.26844215 C9.61238543 937.2729 10.73521931 937.27735784 11.89207846 937.28195077 C13.12580913 937.28176641 14.3595398 937.28158205 15.63065624 937.2813921 C16.94121658 937.28506879 18.25177691 937.28874547 19.6020512 937.29253358 C23.24308535 937.30254621 26.88410302 937.30626919 30.52514899 937.30892289 C34.45103157 937.31282816 38.37690112 937.3224064 42.30277538 937.33113575 C51.78585334 937.35089456 61.26893236 937.36096595 70.75202575 937.36986354 C75.21904613 937.37424768 79.68606532 937.37961419 84.15308475 937.38485241 C99.00493562 937.40186464 113.85678575 937.41635823 128.70864487 937.42360115 C132.56244501 937.42551101 136.41624516 937.42743135 140.27004528 937.42938709 C141.22787582 937.42987083 142.18570635 937.43035457 143.17256206 937.43085297 C158.68457698 937.43915112 174.19651474 937.46448442 189.70849598 937.49696777 C205.63846209 937.5300541 221.56838901 937.54805136 237.49838966 937.55124539 C246.44078731 937.5534091 255.38307246 937.56213737 264.32543659 937.58770657 C271.94216309 937.60943513 279.55874976 937.61745342 287.17550374 937.60773978 C291.05943968 937.60320121 294.94308723 937.60505517 298.82698345 937.62450123 C302.38839403 937.64217806 305.94930679 937.64109918 309.51072299 937.62560394 C311.3972727 937.62211931 313.28382791 937.63822051 315.17030436 937.65520841 C326.12152622 937.57285608 335.04373544 935.08900228 343.05398083 927.42328358 C355.54373683 912.72650242 350.99929333 895.21578679 350.99929333 876.13422108 C227.57929333 876.13422108 104.15929333 876.13422108 -23.00070667 876.13422108 Z " fill="#FF0000" transform="translate(336.00070667266846,-0.13422107696533203)"/>
<path d="M0 0 C7.57503047 5.5401436 13.1295742 11.63441471 15 21 C15.83031778 29.56327736 15.72165378 37.590276 11 45 C8.44816903 48.05705925 5.76720924 50.93273611 3.0078125 53.80078125 C-5.6413483 62.85072947 -12.88283059 73.09985863 -19 84 C-19.3309668 84.58942383 -19.66193359 85.17884766 -20.00292969 85.78613281 C-30.9976188 105.68178554 -38.25142224 129.18465167 -39 152 C-39.03996094 153.18207031 -39.07992187 154.36414063 -39.12109375 155.58203125 C-39.84429593 198.93162075 -23.44582616 238.51838897 6 270 C33.52322438 297.87964023 73.2090904 314.72469298 112.30883789 315.24121094 C156.99490051 315.37196752 196.75559298 298.47706107 228.6796875 267.390625 C256.96479533 237.5692653 271.8707607 196.95351943 271.18359375 156.046875 C269.63284199 116.55568102 253.80027971 80.12960793 226.66796875 51.54296875 C219.85833936 44.3290571 216.84725386 38.01610339 216.5 28 C216.81753509 18.55589177 219.5850359 11.63216216 226.07421875 4.75390625 C233.65249275 -2.14801063 241.51964955 -4.50501813 251.6875 -4.30859375 C264.53031136 -3.1121526 273.74454561 5.889258 281.65136719 15.36669922 C282.09641602 15.90568848 282.54146484 16.44467773 283 17 C283.51723633 17.62277832 284.03447266 18.24555664 284.56738281 18.88720703 C317.40080045 58.7861637 335.5033838 108.19135005 335.375 159.875 C335.37478851 160.67137878 335.37457703 161.46775757 335.37435913 162.28826904 C335.31811282 183.70185236 332.39772533 204.52465334 326 225 C325.75411133 225.79390137 325.50822266 226.58780273 325.25488281 227.40576172 C317.21902867 252.85935492 304.70865561 276.17933556 288 297 C286.77603516 298.52947266 286.77603516 298.52947266 285.52734375 300.08984375 C274.95604918 313.04897 263.17901171 324.79376813 249.71630859 334.73242188 C248.01432411 335.98942094 246.32955002 337.2672632 244.64453125 338.546875 C235.61133874 345.30348357 225.99992929 350.80500514 216 356 C215.31599121 356.35835937 214.63198242 356.71671875 213.92724609 357.0859375 C163.99361635 382.9082374 102.97333245 386.50570633 49.63378906 369.85058594 C16.2468962 359.06824123 -12.71645628 341.14681764 -38 317 C-38.92554688 316.12730469 -39.85109375 315.25460937 -40.8046875 314.35546875 C-72.80438931 283.39825014 -94.7125467 238.97153023 -101 195 C-101.17297607 193.84798096 -101.34595215 192.69596191 -101.52416992 191.5090332 C-102.94728923 181.28821938 -103.36242 171.24971777 -103.3125 160.9375 C-103.31034485 160.13051666 -103.3081897 159.32353333 -103.30596924 158.49209595 C-103.07716624 104.85630837 -83.57788564 52.7834306 -47.0234375 13.21484375 C-45.23253416 11.25453064 -43.54912107 9.24693465 -41.875 7.1875 C-31.45118407 -4.94981992 -14.00179219 -8.18566313 0 0 Z " fill="#FF0000" transform="translate(384,371)"/>
<path d="M0 0 C7.38150213 5.1423163 12.43968648 11.51076349 14.57198143 20.32406998 C15.55111634 26.4455252 15.28571074 32.71034885 15.2746582 38.89599609 C15.27901037 40.50654841 15.2841952 42.11709867 15.29014587 43.72764587 C15.30349307 48.08516612 15.3041193 52.4425994 15.30158257 56.80013609 C15.30050991 60.4455785 15.30540379 64.09100353 15.310188 67.73644221 C15.32126847 76.3409097 15.32172887 84.94533352 15.31567383 93.54980469 C15.30963517 102.40894329 15.32194566 111.26792304 15.3432439 120.12703454 C15.36089102 127.74937999 15.36685634 135.37167502 15.36360615 142.99404013 C15.36179805 147.53936882 15.36438209 152.08458418 15.37832069 156.62989426 C15.3909451 160.90635693 15.38891157 165.18257294 15.37590981 169.45903206 C15.37355445 171.022245 15.3762411 172.58547556 15.38453293 174.14866829 C15.44402665 186.24315742 14.84705024 196.94997397 6.0234375 206.03515625 C-1.96507798 213.59816661 -8.13515765 215.50916223 -19.06665039 215.42016602 C-28.81067192 215.06316277 -35.43216862 211.04105941 -42 204 C-49.61819412 194.35157649 -49.29567045 183.86368759 -49.2746582 172.10400391 C-49.27901037 170.49345159 -49.2841952 168.88290133 -49.29014587 167.27235413 C-49.30349307 162.91483388 -49.3041193 158.5574006 -49.30158257 154.19986391 C-49.30050991 150.5544215 -49.30540379 146.90899647 -49.310188 143.26355779 C-49.32126847 134.6590903 -49.32172887 126.05466648 -49.31567383 117.45019531 C-49.30963517 108.59105671 -49.32194566 99.73207696 -49.3432439 90.87296546 C-49.36089102 83.25062001 -49.36685634 75.62832498 -49.36360615 68.00595987 C-49.36179805 63.46063118 -49.36438209 58.91541582 -49.37832069 54.37010574 C-49.3909451 50.09364307 -49.38891157 45.81742706 -49.37590981 41.54096794 C-49.37355445 39.977755 -49.3762411 38.41452444 -49.38453293 36.85133171 C-49.44543344 24.47085653 -48.60628663 14.45211333 -40 5 C-29.40541111 -5.59458889 -12.96707924 -7.64493889 0 0 Z " fill="#FF0000" transform="translate(517,285)"/>
</svg>
