<?xml version="1.0" encoding="UTF-8"?>
<svg version="1.1" xmlns="http://www.w3.org/2000/svg" width="1000" height="1000">
<path d="M0 0 C1.00422961 -0.00380567 2.00845922 -0.00761134 3.04312003 -0.01153234 C6.39326688 -0.02180235 9.74324284 -0.0179504 13.09340096 -0.01409245 C15.5256867 -0.01854734 17.957971 -0.02386221 20.39025319 -0.02996117 C25.67110663 -0.04116742 30.95191146 -0.04617538 36.23277283 -0.04563999 C44.08625593 -0.04484469 51.93969567 -0.05541799 59.79316715 -0.06805556 C75.45632334 -0.09276033 91.1194689 -0.10157463 106.78264189 -0.10659205 C107.59328345 -0.10685322 108.403925 -0.1071144 109.23913145 -0.10738349 C110.05145538 -0.10764376 110.8637793 -0.10790404 111.7007191 -0.1081722 C120.71407244 -0.11125799 129.72742285 -0.11776403 138.74077415 -0.12438488 C165.98089835 -0.14403 193.22101939 -0.16043562 220.46115112 -0.16326141 C221.33196577 -0.16335547 222.20278042 -0.16344954 223.0999834 -0.16354645 C226.62880582 -0.16392491 230.15762824 -0.16428891 233.68645067 -0.16464943 C236.34229323 -0.16492114 238.99813579 -0.16519782 241.65397835 -0.16547489 C242.53157269 -0.16556291 243.40916703 -0.16565094 244.31335514 -0.16574163 C271.87321685 -0.16864554 299.43300835 -0.19072955 326.99284554 -0.22699833 C357.97800561 -0.26777409 388.96311784 -0.29142035 419.9483062 -0.29172093 C423.25607181 -0.29181774 426.56383741 -0.29198446 429.87160301 -0.29220104 C431.09322483 -0.29226721 431.09322483 -0.29226721 432.33952588 -0.29233472 C445.41476773 -0.29345204 458.48993894 -0.31082391 471.56515808 -0.33402036 C484.72104288 -0.35692589 497.87683282 -0.36104764 511.03273027 -0.34647106 C518.83583554 -0.33835353 526.63864083 -0.34388915 534.44170938 -0.36965191 C540.2872072 -0.38738423 546.13247974 -0.37860662 551.97798087 -0.36000682 C554.32861905 -0.35653021 556.67928879 -0.36134336 559.02988563 -0.37571125 C578.64344873 -0.48778453 597.02548671 1.76118966 614.47526741 11.26006222 C615.47557991 11.77182003 616.47589241 12.28357784 617.50651741 12.81084347 C625.63711629 17.20094776 631.98698871 22.78122789 638.47526741 29.26006222 C639.14429085 29.91748409 639.81331429 30.57490597 640.50261116 31.25224972 C656.41043968 48.06188258 661.97185542 71.69863887 661.85558414 94.15847397 C661.85902683 95.60136688 661.86377975 97.04425714 661.86970511 98.487142 C661.88212093 102.42364258 661.87610753 106.35992421 661.86687143 110.2964254 C661.86012703 114.58993654 661.87084502 118.88341156 661.87926728 123.17691487 C661.89161213 130.69258398 661.89285605 138.20819065 661.88671684 145.72386646 C661.87761185 156.90025211 661.88566901 168.07658018 661.89700808 179.25296142 C661.91666321 199.21689697 661.91902461 219.18080653 661.91381288 239.14474944 C661.90925381 256.61751356 661.90985726 274.09026741 661.91565323 291.5630312 C661.9164101 293.90777738 661.91716608 296.25252356 661.91792117 298.59726974 C661.91906638 302.13069406 661.92021626 305.66411837 661.92138042 309.19754268 C661.93208377 342.04351664 661.93681235 374.88948718 661.92891026 407.73546219 C661.9284645 409.59227557 661.9284645 409.59227557 661.92800973 411.48660033 C661.92556085 421.53869714 661.92294924 431.5907939 661.9203256 441.64289066 C661.91022355 480.85082805 661.91857845 520.0587226 661.94182014 559.26665401 C661.96789808 603.33040025 661.98073925 647.39412071 661.9736324 691.45787495 C661.97291635 696.15713195 661.97224196 700.85638894 661.97159195 705.55564594 C661.97142214 706.71269808 661.97125233 707.86975021 661.97107738 709.06186453 C661.96877541 726.51992641 661.97674651 743.97796434 661.98988342 761.43602085 C662.00479878 781.29276308 662.00563227 801.14944919 661.98781251 821.00619022 C661.97825452 832.11367535 661.97967419 843.22102958 661.9970472 854.32850596 C662.00754927 861.75489203 662.00341858 869.18117857 661.98756716 876.60755486 C661.9789496 880.83420925 661.97647562 885.06060747 661.99183648 889.28724853 C662.10683104 923.28404459 657.03302643 951.84336603 632.66276741 977.44756222 C627.72702066 982.26993041 622.47142601 985.87961918 616.47526741 989.26006222 C615.70956429 989.70994503 614.94386116 990.15982784 614.15495491 990.62334347 C601.76660667 997.4054392 587.55518288 1000.41667985 573.55739403 1000.39428329 C572.55803485 1000.39663552 571.55867567 1000.39898776 570.52903289 1000.40141127 C567.1654174 1000.40809175 563.80184063 1000.40764333 560.43821907 1000.40723324 C558.00811159 1000.41053246 555.57800467 1000.41425815 553.14789844 1000.41837472 C547.15984858 1000.42734479 541.1718112 1000.43162134 535.18375638 1000.43389368 C528.01107637 1000.43685803 520.83840615 1000.4455569 513.66573128 1000.45430796 C496.32751382 1000.47514553 478.98929466 1000.4856217 461.65106759 1000.49443757 C453.44578171 1000.49864569 445.24049655 1000.50386751 437.03521128 1000.5091221 C408.93834391 1000.52701309 380.84147633 1000.5420077 352.74460411 1000.54944229 C350.98084713 1000.54991705 349.21709016 1000.55039293 347.45333318 1000.55086995 C346.14135487 1000.55122452 346.14135487 1000.55122452 344.80287194 1000.55158624 C340.37156756 1000.55278742 335.94026319 1000.55400288 331.50895882 1000.55522823 C330.18985724 1000.55558846 330.18985724 1000.55558846 328.84410715 1000.55595596 C300.34543215 1000.56384516 271.84679882 1000.58726874 243.34814202 1000.61978418 C213.20653145 1000.65411122 183.06494525 1000.67379616 152.92331481 1000.67708653 C149.61187409 1000.67750406 146.30043339 1000.67798362 142.98899269 1000.67850971 C141.76596871 1000.6786945 141.76596871 1000.6786945 140.51823718 1000.67888302 C127.41703175 1000.68121163 114.31587483 1000.69685279 101.21468667 1000.71735156 C88.03473148 1000.73764568 74.85483433 1000.74306996 61.67486641 1000.73358092 C53.85341995 1000.72837966 46.03216727 1000.73417806 38.21074884 1000.7561156 C32.35671921 1000.77128806 26.50283041 1000.76533264 20.64879367 1000.75144508 C18.29065698 1000.74907193 15.93250141 1000.75337713 13.57439354 1000.76527373 C-16.75901112 1000.90874835 -42.83771229 993.60871153 -65.52473259 972.26006222 C-85.00713749 951.72730158 -89.69707437 925.44629356 -89.65336704 898.11375046 C-89.65471597 896.70390968 -89.65650115 895.29406926 -89.65867928 893.88422951 C-89.66338682 890.02092135 -89.66191492 886.1576369 -89.65940151 882.29432761 C-89.65776338 878.08708303 -89.66191346 873.87984342 -89.66531068 869.67260045 C-89.67045793 862.30224711 -89.67188305 854.93190033 -89.67085457 847.56154537 C-89.66932887 836.60127727 -89.67349309 825.64101643 -89.67872919 814.68074973 C-89.68839889 793.96603839 -89.69121329 773.25132952 -89.69178625 752.53661618 C-89.69224583 736.53968345 -89.69430435 720.5427517 -89.69748688 704.54581928 C-89.69838442 699.94078785 -89.69927424 695.33575642 -89.70016176 690.73072499 C-89.7003828 689.58589526 -89.70060385 688.44106553 -89.7008316 687.26154399 C-89.70698557 655.060742 -89.71093218 622.85994034 -89.71048832 590.65913773 C-89.71047274 589.44515626 -89.71045716 588.2311748 -89.71044111 586.98040602 C-89.710358 580.82746901 -89.71025896 574.67453199 -89.7101564 568.52159498 C-89.71013646 567.29960347 -89.71011651 566.07761196 -89.71009596 564.8185904 C-89.71005553 562.34742612 -89.71001373 559.87626183 -89.70997057 557.40509754 C-89.7093578 518.95643941 -89.71686491 480.50779009 -89.73054314 442.05913448 C-89.74590486 398.86048656 -89.75450931 355.66184443 -89.75357991 312.4631936 C-89.75350528 307.85659039 -89.75345658 303.24998719 -89.7534256 298.64338398 C-89.75341394 297.50912456 -89.75340229 296.37486513 -89.75339028 295.20623421 C-89.75335951 276.95644116 -89.7597442 258.70665576 -89.76835786 240.45686499 C-89.77683613 222.11453012 -89.77782292 203.77220645 -89.77124854 185.4298707 C-89.76755413 174.53531088 -89.76938204 163.64078508 -89.77919088 152.74622887 C-89.78519286 145.46418898 -89.78389297 138.18217373 -89.77672038 130.90013497 C-89.77284076 126.75426403 -89.77205781 122.60845892 -89.78017773 118.46259264 C-89.78751697 114.68209796 -89.78544996 110.90172325 -89.77625387 107.1212337 C-89.77375278 105.13955293 -89.78094635 103.15786691 -89.78867665 101.17619964 C-89.68548947 74.86455038 -83.11994499 50.96921382 -66.52473259 30.26006222 C-66.03488884 29.61810909 -65.54504509 28.97615597 -65.04035759 28.31474972 C-49.730261 9.13412309 -23.88133183 -0.10001561 0 0 Z M-19.52473259 73.26006222 C-25.14959008 81.63038587 -25.82034389 90.77135697 -25.77082825 100.56752682 C-25.77313594 101.69277258 -25.77544362 102.81801834 -25.77782124 103.97736245 C-25.7831252 107.75703924 -25.77413364 111.53654646 -25.76524162 115.31621456 C-25.76500001 118.04961418 -25.76778005 120.78300886 -25.77041996 123.51640701 C-25.77456314 129.46390403 -25.77128721 135.41136099 -25.76314354 141.35885334 C-25.75106789 150.20253437 -25.75047245 159.04619017 -25.75222752 167.88987794 C-25.75485481 182.76672883 -25.74817442 197.64356195 -25.7361927 212.52040768 C-25.7243594 227.25073491 -25.71666096 241.98105473 -25.71448708 256.71138668 C-25.7143496 257.62721198 -25.71421212 258.54303729 -25.71407047 259.48661488 C-25.71339381 264.13761289 -25.71279104 268.78861091 -25.71221672 273.43960893 C-25.7080157 306.3841596 -25.69454041 339.32870059 -25.6756115 372.27324581 C-25.65724333 404.27877915 -25.64310957 436.28430983 -25.63459587 468.28984737 C-25.63405459 470.3023984 -25.63351318 472.31494943 -25.63297164 474.32750046 C-25.62859411 490.68027319 -25.62450895 507.033046 -25.62049468 523.38581882 C-25.60171953 599.01057578 -25.56157878 674.63530751 -25.52473259 750.26006222 C180.39526741 750.26006222 386.31526741 750.26006222 598.47526741 750.26006222 C598.56137249 635.56494602 598.56137249 635.56494602 598.6197623 520.86982381 C598.62588596 504.26229026 598.63214974 487.65475676 598.63884539 471.04722343 C598.63965491 469.03840188 598.64046003 467.02958032 598.64126068 465.02075877 C598.65406224 432.99352369 598.67657434 400.96630448 598.70415907 368.939079 C598.73245703 336.02399661 598.75092379 303.108923 598.75701238 270.19382865 C598.75787685 265.54528588 598.75885376 260.89674315 598.75989914 256.24820042 C598.76010141 255.33329645 598.76030368 254.41839249 598.76051208 253.47576416 C598.76405785 238.74564772 598.77797372 224.01555843 598.79576351 209.28545306 C598.81342513 194.47835498 598.82017137 179.67128383 598.81577154 164.86417558 C598.81348905 156.06595952 598.81957985 147.267842 598.83766004 138.46964372 C598.84891571 132.59096574 598.84925415 126.71235224 598.84076285 120.8336698 C598.83623704 117.48495934 598.83807601 114.1365863 598.84991696 110.78787132 C598.86194749 107.17584676 598.85547173 103.5643048 598.8444109 99.95228767 C598.85229194 98.91910814 598.86017298 97.88592861 598.86829284 96.82144061 C598.80648492 87.89532355 597.80245279 78.4446126 591.33854866 71.75615597 C582.60038732 64.7399803 572.44409358 62.9521952 561.57006454 63.00558662 C560.59639163 63.00238015 559.62271872 62.99917367 558.61954057 62.99587002 C555.35537584 62.98756561 552.09139439 62.99349595 548.82722664 62.99936581 C546.46393729 62.99634533 544.10064891 62.99245638 541.73736227 62.98777324 C535.92259785 62.97855116 530.10788554 62.97864475 524.29311642 62.98268486 C517.32662306 62.98701215 510.36015385 62.97975234 503.39366497 62.97219358 C488.95050179 62.9569533 474.50735613 62.95524853 460.06418659 62.95771661 C448.91123716 62.95954926 437.75829348 62.95779024 426.60534477 62.95349216 C425.00301059 62.95288976 423.4006764 62.95228857 421.79834222 62.95168856 C419.38377918 62.95078131 416.96921614 62.94987264 414.5546531 62.94895621 C392.10529169 62.94052662 369.65593244 62.93619104 347.20656967 62.94036293 C346.36027105 62.94051931 345.51397244 62.94067568 344.64202841 62.9408368 C340.3526519 62.94164258 336.06327541 62.94248835 331.77389891 62.9433501 C330.49607331 62.94360673 330.49607331 62.94360673 329.19243305 62.94386855 C327.46971744 62.9442152 325.74700183 62.94456373 324.02428622 62.94491413 C297.21691799 62.95027172 270.40958264 62.94233988 243.60222054 62.92388058 C213.4837004 62.90316553 183.36520064 62.89243689 153.24667299 62.89645606 C150.03538919 62.89685141 146.82410539 62.89721296 143.61282158 62.89755344 C142.82212259 62.89764418 142.03142359 62.89773491 141.21676403 62.89782839 C129.27960401 62.89899443 117.34246456 62.89234553 105.40530968 62.88174152 C91.82981998 62.86969445 78.2543756 62.8681249 64.67888524 62.88053169 C57.75115027 62.88657965 50.82349612 62.88787853 43.89576721 62.87552929 C37.55472371 62.86471169 31.21384329 62.86772477 24.87280755 62.88179097 C22.57813301 62.88444927 20.28344587 62.88203603 17.98878367 62.87405511 C14.86970973 62.86395933 11.75120377 62.87236275 8.63215256 62.88533211 C7.74141954 62.87802276 6.85068651 62.87071342 5.93296158 62.86318257 C-4.25871626 62.9510138 -12.73697287 65.40385883 -19.52473259 73.26006222 Z M-25.52473259 813.26006222 C-34.82810149 876.34692674 -34.82810149 876.34692674 -17.89973259 929.19756222 C-9.20193625 935.97696609 0.33039473 937.41241291 11.01132679 937.39148998 C12.46664386 937.39456893 12.46664386 937.39456893 13.95136127 937.39771008 C17.22176835 937.40339129 20.49213347 937.40192145 23.76254463 937.40050411 C26.12324408 937.4030871 28.4839431 937.40610008 30.84464151 937.40950751 C36.66463249 937.4167403 42.48461495 937.41928052 48.30460938 937.41983657 C55.27495278 937.42075032 62.2452877 937.42741817 69.21562746 937.43418339 C86.06266504 937.45024438 102.90970172 937.4561467 119.75674559 937.46093214 C127.72595318 937.4632679 135.69516006 937.46687052 143.66436709 937.47062752 C170.94210087 937.48346285 198.21983425 937.49418226 225.49757099 937.49763012 C227.20994475 937.49785175 228.92231851 937.49807354 230.63469227 937.49829547 C232.35120753 937.49851611 234.06772278 937.49873659 235.78423804 937.49895692 C239.22787869 937.49939947 242.67151934 937.49984659 246.11515999 937.50029659 C246.96898283 937.50040598 247.82280567 937.50051537 248.70250193 937.50062808 C276.39073776 937.5042591 304.07894742 937.52018095 331.76717322 937.54348696 C361.03873387 937.56808067 390.31027955 937.58180274 419.58185083 937.58299804 C422.79486645 937.58316949 426.00788206 937.58338492 429.22089767 937.58363247 C430.40760541 937.58371612 430.40760541 937.58371612 431.61828705 937.58380147 C444.35197369 937.58495228 457.08563347 937.59597685 469.81931103 937.61051952 C482.61725355 937.62488291 495.41516163 937.62812239 508.21310999 937.62007955 C515.14690225 937.61601498 522.08061204 937.61673905 529.01439285 937.63113689 C535.36110339 937.6438373 541.70765524 937.64271215 548.05436543 937.63054618 C550.35115006 937.6285825 552.64794579 937.63169844 554.94471481 937.64039055 C558.06667003 937.6514581 561.18806272 937.64401157 564.31000233 937.63199902 C565.20159289 937.63959421 566.09318345 937.6471894 567.01179191 937.65501475 C575.404968 937.58530134 583.68814295 936.08022326 589.94401741 930.11943722 C612.83520577 902.32299421 598.47526741 819.96791191 598.47526741 813.26006222 C392.55526741 813.26006222 186.63526741 813.26006222 -25.52473259 813.26006222 Z " fill="#FF0000" transform="translate(213.52473258972168,-0.26006221771240234)"/>
<path d="M0 0 C1.30983856 -0.00671722 2.61967712 -0.01343445 3.96920776 -0.02035522 C7.54794897 -0.03795441 11.12659441 -0.04270808 14.70537472 -0.0439868 C16.94628571 -0.04541264 19.18717269 -0.04969046 21.4280777 -0.05498123 C29.26033563 -0.07346281 37.09252568 -0.08165437 44.92480469 -0.08007812 C52.20198094 -0.07887788 59.47886006 -0.09996188 66.75596118 -0.13156545 C73.02290311 -0.15780282 79.28974845 -0.16844228 85.55674481 -0.16716731 C89.29119917 -0.16665977 93.02538934 -0.17222618 96.75978851 -0.19352341 C100.93120805 -0.21666515 105.101971 -0.20733953 109.2734375 -0.1953125 C110.49459259 -0.20655151 111.71574768 -0.21779053 112.97390747 -0.22937012 C123.48883922 -0.15262148 132.42019976 1.94197435 140.17675781 9.36474609 C145.84038006 15.71057738 149.13401212 22.56681619 149.16293335 31.17704773 C149.1757283 32.90730446 149.1757283 32.90730446 149.18878174 34.67251587 C149.18742218 36.54983902 149.18742218 36.54983902 149.18603516 38.46508789 C149.1920252 39.80771761 149.19883184 41.15034389 149.20639038 42.4929657 C149.22401334 46.12961518 149.2287443 49.76617044 149.23002195 53.4028585 C149.23144669 55.67944353 149.23572247 57.95600487 149.24101639 60.232584 C149.25950735 68.18803036 149.26768854 76.14340982 149.26611328 84.09887695 C149.26491347 91.4924781 149.28598645 98.88578659 149.31760061 106.27931374 C149.34383664 112.64389904 149.35447746 119.00838921 149.35320246 125.3730281 C149.3526948 129.16674048 149.35826835 132.96019284 149.37955856 136.75385094 C149.39906408 140.32696387 149.39898264 143.89957216 149.3845253 147.47270393 C149.38147001 149.39212646 149.39802886 151.3115497 149.41540527 153.230896 C149.34147059 163.52135178 147.39081982 172.85953995 140.07910156 180.50146484 C129.5770431 189.10601364 118.52323856 189.44096585 105.59545898 189.43579102 C104.3830101 189.43914963 103.17056122 189.44250824 101.92137146 189.44596863 C98.61540763 189.45380824 95.30950664 189.45714428 92.00353789 189.45778441 C89.93231615 189.45849822 87.86110088 189.46063876 85.78988075 189.46328163 C78.54766043 189.47251583 71.30545844 189.47661893 64.06323242 189.47583008 C57.33882606 189.4752298 50.61450005 189.48577683 43.89011401 189.50157374 C38.09449585 189.51469804 32.29890381 189.52001193 26.50327092 189.51937467 C23.05171934 189.51912112 19.60023925 189.52189268 16.14870262 189.53255272 C12.29368394 189.54413543 8.43877342 189.53945708 4.58374023 189.53344727 C3.45766357 189.53906677 2.33158691 189.54468628 1.17138672 189.55047607 C-10.39099992 189.50488397 -21.13207322 188.48976718 -30.07714844 180.53662109 C-38.48234014 171.70313937 -39.69796516 162.24761522 -39.62207031 150.4465332 C-39.62750221 149.08036049 -39.63463082 147.71419365 -39.64331055 146.34803772 C-39.66141869 142.6661764 -39.65452931 138.98476752 -39.6417942 135.30289912 C-39.63160314 131.4340633 -39.64107653 127.56526388 -39.64733887 123.69642639 C-39.65459676 117.20290231 -39.64507574 110.70956077 -39.62597656 104.21606445 C-39.60420209 96.72688332 -39.61127064 89.23813774 -39.63328218 81.74896711 C-39.65147847 75.29768508 -39.65397421 68.84653358 -39.64352751 62.39523417 C-39.63731689 58.55137503 -39.63638959 54.70772015 -39.64967346 50.86387444 C-39.66129365 47.24963208 -39.65309529 43.63594735 -39.63009644 40.02176476 C-39.62235153 38.07578659 -39.63411176 36.12976084 -39.64660645 34.18380737 C-39.57747277 26.97640522 -38.72041529 21.56450178 -35.10449219 15.29052734 C-34.73664864 14.63684646 -34.36880508 13.98316557 -33.98981476 13.30967617 C-30.04740687 6.65011417 -22.67492874 2.72457355 -15.37236786 0.71059799 C-10.31214448 -0.22668942 -5.1286251 -0.00378152 0 0 Z M23.89550781 63.29052734 C23.89550781 83.75052734 23.89550781 104.21052734 23.89550781 125.29052734 C44.35550781 125.29052734 64.81550781 125.29052734 85.89550781 125.29052734 C85.89550781 104.83052734 85.89550781 84.37052734 85.89550781 63.29052734 C65.43550781 63.29052734 44.97550781 63.29052734 23.89550781 63.29052734 Z " fill="#FF0000" transform="translate(320.1044921875,436.70947265625)"/>
<path d="M0 0 C1.14509033 -0.00852997 2.29018066 -0.01705994 3.4699707 -0.02584839 C4.71216873 -0.02494202 5.95436676 -0.02403564 7.23420715 -0.02310181 C8.55365326 -0.02981903 9.87309937 -0.03653625 11.23252869 -0.04345703 C14.84231966 -0.06107912 18.45201571 -0.06581092 22.06184554 -0.0670886 C24.32167968 -0.06851339 26.58148994 -0.07278928 28.84131813 -0.07808304 C36.7384099 -0.09657374 44.63543429 -0.10475523 52.532547 -0.10317993 C59.87161749 -0.10198014 67.21039312 -0.12305278 74.54938906 -0.15466726 C80.86726572 -0.18090441 87.18504654 -0.19154406 93.50297719 -0.19026911 C97.26874468 -0.18976148 101.03425021 -0.1953333 104.799963 -0.21662521 C108.34681229 -0.23613262 111.89315323 -0.23604804 115.44002151 -0.22159195 C117.34513085 -0.2185371 119.25024091 -0.2350942 121.15527344 -0.25247192 C131.70209677 -0.17614526 140.65019445 1.89404788 148.43269348 9.34164429 C154.09631573 15.68747558 157.38994778 22.54371438 157.41886902 31.15394592 C157.43166397 32.88420265 157.43166397 32.88420265 157.44471741 34.64941406 C157.44335785 36.52673721 157.44335785 36.52673721 157.44197083 38.44198608 C157.44796087 39.7846158 157.45476751 41.12724209 157.46232605 42.46986389 C157.47994901 46.10651337 157.48467997 49.74306864 157.48595762 53.37975669 C157.48738236 55.65634173 157.49165814 57.93290306 157.49695206 60.20948219 C157.51544302 68.16492855 157.52362421 76.12030801 157.52204895 84.07577515 C157.52084914 91.4693763 157.54192212 98.86268478 157.57353628 106.25621194 C157.59977231 112.62079723 157.61041313 118.9852874 157.60913813 125.34992629 C157.60863046 129.14363867 157.61420402 132.93709104 157.63549423 136.73074913 C157.65499974 140.30386207 157.65491831 143.87647036 157.64046097 147.44960213 C157.63740568 149.36902465 157.65396453 151.28844789 157.67134094 153.20779419 C157.5973752 163.50257286 155.65964444 172.88724747 148.29907227 180.49433517 C139.63383541 187.64838716 130.8814626 189.14873328 119.94441223 189.04379272 C118.56309867 189.05194565 117.18179819 189.06264137 115.80052185 189.07565308 C112.08533713 189.10275967 108.37116389 189.09250558 104.6559639 189.07337856 C100.7458218 189.05805873 96.83575935 189.07231134 92.9256134 189.08169556 C86.36238754 189.09257434 79.79956836 189.0783242 73.23640442 189.0496521 C65.67662172 189.01700499 58.11781031 189.02758467 50.55805111 189.06061053 C44.03699726 189.08794521 37.51623373 189.09162892 30.99514103 189.07597852 C27.11367973 189.06668243 23.23267313 189.06521462 19.35124207 189.08519745 C15.69977833 189.10268735 12.04955181 189.09022766 8.39822006 189.05583191 C6.4397267 189.0442723 4.48112715 189.0618058 2.52268982 189.08059692 C-6.91696653 188.94683323 -14.67373706 186.62507487 -21.9961853 180.45893478 C-30.29751908 171.75813218 -31.44069366 162.01680249 -31.36613464 150.4234314 C-31.37156654 149.05725869 -31.37869515 147.69109185 -31.38737488 146.32493591 C-31.40548302 142.6430746 -31.39859364 138.96166571 -31.38585854 135.27979732 C-31.37566747 131.41096149 -31.38514086 127.54216208 -31.3914032 123.67332458 C-31.39866109 117.1798005 -31.38914007 110.68645896 -31.37004089 104.19296265 C-31.34826642 96.70378151 -31.35533497 89.21503594 -31.37734652 81.7258653 C-31.3955428 75.27458328 -31.39803854 68.82343178 -31.38759184 62.37213236 C-31.38138122 58.52827323 -31.38045392 54.68461834 -31.39373779 50.84077263 C-31.40535798 47.22653028 -31.39715962 43.61284554 -31.37416077 39.99866295 C-31.36641587 38.05268478 -31.37817609 36.10665903 -31.39067078 34.16070557 C-31.3215371 26.95330341 -30.46447962 21.54139997 -26.84855652 15.26742554 C-26.4806324 14.61374465 -26.11270828 13.96006376 -25.73363495 13.28657436 C-20.62871497 4.66119892 -9.69849678 0.03281919 0 0 Z M32.15144348 63.26742554 C32.15144348 83.72742554 32.15144348 104.18742554 32.15144348 125.26742554 C52.61144348 125.26742554 73.07144348 125.26742554 94.15144348 125.26742554 C94.15144348 104.80742554 94.15144348 84.34742554 94.15144348 63.26742554 C73.69144348 63.26742554 53.23144348 63.26742554 32.15144348 63.26742554 Z " fill="#FF0000" transform="translate(561.8485565185547,186.73257446289063)"/>
<path d="M0 0 C1.14509033 -0.00852997 2.29018066 -0.01705994 3.4699707 -0.02584839 C4.71216873 -0.02494202 5.95436676 -0.02403564 7.23420715 -0.02310181 C8.55365326 -0.02981903 9.87309937 -0.03653625 11.23252869 -0.04345703 C14.84231966 -0.06107912 18.45201571 -0.06581092 22.06184554 -0.0670886 C24.32167968 -0.06851339 26.58148994 -0.07278928 28.84131813 -0.07808304 C36.7384099 -0.09657374 44.63543429 -0.10475523 52.532547 -0.10317993 C59.87161749 -0.10198014 67.21039312 -0.12305278 74.54938906 -0.15466726 C80.86726572 -0.18090441 87.18504654 -0.19154406 93.50297719 -0.19026911 C97.26874468 -0.18976148 101.03425021 -0.1953333 104.799963 -0.21662521 C108.34681229 -0.23613262 111.89315323 -0.23604804 115.44002151 -0.22159195 C117.34513085 -0.2185371 119.25024091 -0.2350942 121.15527344 -0.25247192 C131.70209677 -0.17614526 140.65019445 1.89404788 148.43269348 9.34164429 C154.09631573 15.68747558 157.38994778 22.54371438 157.41886902 31.15394592 C157.43166397 32.88420265 157.43166397 32.88420265 157.44471741 34.64941406 C157.44335785 36.52673721 157.44335785 36.52673721 157.44197083 38.44198608 C157.44796087 39.7846158 157.45476751 41.12724209 157.46232605 42.46986389 C157.47994901 46.10651337 157.48467997 49.74306864 157.48595762 53.37975669 C157.48738236 55.65634173 157.49165814 57.93290306 157.49695206 60.20948219 C157.51544302 68.16492855 157.52362421 76.12030801 157.52204895 84.07577515 C157.52084914 91.4693763 157.54192212 98.86268478 157.57353628 106.25621194 C157.59977231 112.62079723 157.61041313 118.9852874 157.60913813 125.34992629 C157.60863046 129.14363867 157.61420402 132.93709104 157.63549423 136.73074913 C157.65499974 140.30386207 157.65491831 143.87647036 157.64046097 147.44960213 C157.63740568 149.36902465 157.65396453 151.28844789 157.67134094 153.20779419 C157.5973752 163.50257286 155.65964444 172.88724747 148.29907227 180.49433517 C139.63383541 187.64838716 130.8814626 189.14873328 119.94441223 189.04379272 C118.56309867 189.05194565 117.18179819 189.06264137 115.80052185 189.07565308 C112.08533713 189.10275967 108.37116389 189.09250558 104.6559639 189.07337856 C100.7458218 189.05805873 96.83575935 189.07231134 92.9256134 189.08169556 C86.36238754 189.09257434 79.79956836 189.0783242 73.23640442 189.0496521 C65.67662172 189.01700499 58.11781031 189.02758467 50.55805111 189.06061053 C44.03699726 189.08794521 37.51623373 189.09162892 30.99514103 189.07597852 C27.11367973 189.06668243 23.23267313 189.06521462 19.35124207 189.08519745 C15.69977833 189.10268735 12.04955181 189.09022766 8.39822006 189.05583191 C6.4397267 189.0442723 4.48112715 189.0618058 2.52268982 189.08059692 C-6.91696653 188.94683323 -14.67373706 186.62507487 -21.9961853 180.45893478 C-30.29751908 171.75813218 -31.44069366 162.01680249 -31.36613464 150.4234314 C-31.37156654 149.05725869 -31.37869515 147.69109185 -31.38737488 146.32493591 C-31.40548302 142.6430746 -31.39859364 138.96166571 -31.38585854 135.27979732 C-31.37566747 131.41096149 -31.38514086 127.54216208 -31.3914032 123.67332458 C-31.39866109 117.1798005 -31.38914007 110.68645896 -31.37004089 104.19296265 C-31.34826642 96.70378151 -31.35533497 89.21503594 -31.37734652 81.7258653 C-31.3955428 75.27458328 -31.39803854 68.82343178 -31.38759184 62.37213236 C-31.38138122 58.52827323 -31.38045392 54.68461834 -31.39373779 50.84077263 C-31.40535798 47.22653028 -31.39715962 43.61284554 -31.37416077 39.99866295 C-31.36641587 38.05268478 -31.37817609 36.10665903 -31.39067078 34.16070557 C-31.3215371 26.95330341 -30.46447962 21.54139997 -26.84855652 15.26742554 C-26.4806324 14.61374465 -26.11270828 13.96006376 -25.73363495 13.28657436 C-20.62871497 4.66119892 -9.69849678 0.03281919 0 0 Z M32.15144348 63.26742554 C32.15144348 83.72742554 32.15144348 104.18742554 32.15144348 125.26742554 C52.61144348 125.26742554 73.07144348 125.26742554 94.15144348 125.26742554 C94.15144348 104.80742554 94.15144348 84.34742554 94.15144348 63.26742554 C73.69144348 63.26742554 53.23144348 63.26742554 32.15144348 63.26742554 Z " fill="#FF0000" transform="translate(311.8485565185547,186.73257446289063)"/>
</svg>
